<svg id="Layer_1" enable-background="new 0 0 496 496" height="512" viewBox="0 0 496 496" width="512" xmlns="http://www.w3.org/2000/svg"><g><g><path d="m489.999 248c0 136.967-105.033 226.784-242 226.784s-231.187-82.96-231.187-219.927c0-73.016 14.741-145.519 64.958-190.903 43.981-39.749 102.278-63.954 166.229-63.954 84.065 0 158.362 41.827 203.213 105.806 28.223 40.26 38.787 89.293 38.787 142.194z" fill="#6ee1ff"/></g><path d="m.313 260.55c.009.193.021.385.031.578 5.893 112.984 83.583 172.042 85.169 174.231 43.352 37.626 100.201 60.641 162.486 60.641 58.282 0 113.927-20.273 158.277-57.088h.014c7.404-6.146 15.247-13.472 22.28-20.937-.003.001-.005.001-.008.002 42.621-45.374 67.437-105.219 67.437-169.977 0-52.901-16.576-101.924-44.801-142.185-1.914-2.73-4.872-4.542-8.176-4.983-3.969-.529-9.468-1.295-14.246-1.966-5.854-.823-10.207-5.831-10.207-11.743 0-5.32-3.537-10.01-8.664-11.427-27.767-7.676-57.947-9.395-85.313-.688-9.26 2.942-16.687 6.65-22.427 10.2-9.364 5.79-21.274 5.899-30.588.027-28.663-18.07-67.385-19.344-102.168-11.017-8.476 2.029-14.484 9.563-14.484 18.279v4.924c-7.834.258-13.633-1.461-16.121 3.844h-1.494c.114-.36.228-.719.344-1.078 10.789-33.599-29.682-59.873-55.869-36.219-37.915 34.247-65.353 80.166-76.413 132.53-4.573 21.627-6.098 43.213-5.059 64.052z" fill="#05cdff"/><g><path d="m412.477 396.139h-335.904c-10.102 0-18.291-8.189-18.291-18.291v-222.237c0-10.102 8.189-18.291 18.291-18.291h335.904c10.102 0 18.291 8.189 18.291 18.291v222.237c0 10.102-8.189 18.291-18.291 18.291z" fill="#f8e000"/><path d="m173.252 345.634c-.351 0-.699-.01-1.045-.029-11.147-.629-10.428-17.438.736-17.438h50.834c4.925 0 9.83 1.285 13.894 4.066 3.47 2.375 9.526 3.948 16.428 3.948s12.958-1.573 16.428-3.948c4.064-2.781 8.969-4.066 13.894-4.066h112.016c3.682 0 6.667-2.985 6.667-6.667v-184.18h-248.143-49.013-29.375c-10.102 0-18.291 8.189-18.291 18.291v222.237c0 10.102 8.189 18.291 18.291 18.291h335.904c10.102 0 18.291-8.189 18.291-18.291v-32.215h-257.516z" fill="#ffc305"/><g><path d="m401.726 122.32h-285.687c.055.552.086 1.107.086 1.664v28.336h285.601c7.743 0 14.042 6.299 14.042 14.042v200.735c0 7.743-6.299 14.042-14.042 14.042h-285.601v30h285.601c24.285 0 44.042-19.757 44.042-44.042v-200.735c0-24.285-19.757-44.042-44.042-44.042z" fill="#2d56a1"/></g><g><path d="m184.986 381.139h-97.662c-7.755 0-14.042-6.287-14.042-14.042v-200.735c0-7.755 6.287-14.042 14.042-14.042h17.733c8.284 0 15-6.716 15-15 0-8.284-6.716-15-15-15h-17.733c-24.323 0-44.042 19.718-44.042 44.042v200.736c0 24.324 19.718 44.042 44.042 44.042h97.662c8.284 0 15-6.716 15-15 0-8.285-6.715-15.001-15-15.001z" fill="#1a396b"/></g><path d="m451.103 450.502c10.108-8.016 16.598-20.396 16.598-34.298v-11.559h-375.048v45.857z" fill="#1a396b"/><path d="m140.082 447.569c-23.888 0-43.293-19.143-43.742-42.924h-79.528v11.559c0 24.17 19.593 43.763 43.763 43.763h363.363c11.866 0 22.622-4.73 30.505-12.398z" fill="#033ad6"/><g><path d="m244.525 310.943v-7.637c-1.75.577-3.602.926-5.511 1.012-10.03.449-18.573-8.858-18.573-18.573v-167.269h-77.039v192.467z" fill="#ff5551"/><path d="m155.071 307.049c-3.682 0-6.667-2.985-6.667-6.667v-181.906h-45.79c-3.682 0-6.667 2.985-6.667 6.667v189.357c0 3.682 2.985 6.667 6.667 6.667h141.911v-14.117h-89.454z" fill="#e20a62"/><ellipse cx="244.098" cy="320.594" fill="#e20a62" rx="19.542" ry="8.587"/><path d="m249.163 267.807 2.538-29.197-7.176-120.133c-19.086-19.394-50.038-30.134-86.533-27.954v177.284z" fill="#fff"/><path d="m162.183 222.334v-132.004c-15.583.515-32.245 3.407-49.48 9.032v202.69c52.971-15.937 103.209-7.935 131.823 19.114l5.469-62.92c-15.616-3.946-33.078-5.121-51.48-3.288-19.419 1.935-36.332-13.109-36.332-32.624z" fill="#faf58c"/><g><g><path d="m221.71 138.271c-24.371-11.528-55.039-14.395-87.189-8.095v9.281c32.657-6.743 63.602-3.553 87.189 8.992z" fill="#6ee1ff"/></g><g><path d="m221.71 159.703c-24.37-11.528-55.038-14.393-87.189-8.094v9.281c32.655-6.741 63.601-3.554 87.189 8.99z" fill="#6ee1ff"/></g><g><path d="m221.71 181.136c-24.37-11.528-55.038-14.393-87.189-8.094v9.281c32.655-6.741 63.601-3.553 87.189 8.99z" fill="#6ee1ff"/></g><g><path d="m221.71 202.568c-24.371-11.529-55.039-14.394-87.189-8.095v9.281c32.656-6.74 63.601-3.551 87.189 8.991z" fill="#6ee1ff"/></g><g><path d="m221.71 224c-24.371-11.528-55.039-14.396-87.189-8.095v9.281c32.657-6.743 63.602-3.553 87.189 8.992z" fill="#6ee1ff"/></g><g><path d="m221.71 245.433c-24.37-11.528-55.038-14.393-87.189-8.094v9.281c32.655-6.74 63.601-3.554 87.189 8.99z" fill="#6ee1ff"/></g><g><path d="m221.71 266.865c-24.37-11.528-55.038-14.393-87.189-8.094v9.281c32.655-6.741 63.601-3.554 87.189 8.99z" fill="#6ee1ff"/></g></g><path d="m393.102 309.04v-183.897c0-3.682-2.985-6.667-6.667-6.667h-101.571v190.564z" fill="#ff5551"/><path d="m297.815 307.049c-5.182 0-9.382-4.201-9.382-9.382v-179.19h-23.868v171.709c0 10.412-8.51 18.122-18.573 18.573-.493.022-.982.014-1.467-.01v12.418h141.911c3.682 0 6.667-2.985 6.667-6.667v-7.451z" fill="#e20a62"/><path d="m376.348 261.463v-162.101c-34.593-11.29-66.883-11.588-92.752-3.689v165.79z" fill="#fff"/><path d="m287.276 214.035v-119.423c-17.295 4.656-31.93 12.869-42.751 23.864v202.69c28.613-27.049 78.851-35.051 131.823-19.114v-47.606c-13.091-.817-25.639-.088-37.305 2.099-26.852 5.035-51.767-15.191-51.767-42.51z" fill="#faf58c"/><g><g><path d="m351.119 130.02c-32.21-6.166-62.89-3.116-87.189 8.629v10.136c.234-.079.466-.171.691-.291 23.41-12.485 54.087-15.735 86.498-9.193z" fill="#6ee1ff"/></g><g><path d="m351.119 151.452c-32.211-6.168-62.89-3.116-87.189 8.628v10.136c.234-.079.466-.171.691-.291 23.411-12.484 54.089-15.732 86.498-9.192z" fill="#6ee1ff"/></g><g><path d="m351.119 172.885c-32.211-6.167-62.89-3.117-87.189 8.628v10.136c.234-.079.466-.171.691-.291 23.411-12.484 54.089-15.732 86.498-9.192z" fill="#6ee1ff"/></g><g><path d="m351.119 194.317c-32.21-6.165-62.89-3.116-87.189 8.629v10.136c.234-.079.466-.171.691-.291 23.41-12.483 54.089-15.732 86.498-9.193z" fill="#6ee1ff"/></g><g><path d="m351.119 215.749c-32.21-6.166-62.89-3.116-87.189 8.629v10.136c.234-.079.466-.171.691-.291 23.41-12.485 54.087-15.735 86.498-9.193z" fill="#6ee1ff"/></g><g><path d="m351.119 237.182c-32.211-6.167-62.89-3.116-87.189 8.628v10.136c.234-.079.466-.171.691-.291 23.411-12.484 54.089-15.732 86.498-9.192z" fill="#6ee1ff"/></g><g><path d="m351.119 258.614c-32.211-6.167-62.89-3.116-87.189 8.628v10.136c.234-.079.466-.171.691-.291 23.411-12.484 54.089-15.732 86.498-9.192z" fill="#6ee1ff"/></g></g><g><g><path d="m169.058 126.931c-11.156-.131-22.745.935-34.537 3.246v9.281c11.827-2.442 23.427-3.575 34.537-3.438z" fill="#2896ff"/></g><g><path d="m169.058 148.364c-11.156-.131-22.744.935-34.537 3.245v9.281c11.827-2.442 23.427-3.574 34.537-3.438z" fill="#2896ff"/></g><g><path d="m169.058 169.797c-11.156-.131-22.744.935-34.537 3.245v9.281c11.827-2.442 23.427-3.574 34.537-3.438z" fill="#2896ff"/></g><g><path d="m169.058 191.228c-11.156-.131-22.745.935-34.537 3.245v9.281c11.827-2.441 23.427-3.573 34.537-3.437z" fill="#2896ff"/></g><g><path d="m169.058 212.66c-11.156-.131-22.745.935-34.537 3.246v9.281c11.827-2.442 23.427-3.575 34.537-3.438z" fill="#2896ff"/></g><g><path d="m169.058 234.094c-11.156-.131-22.744.935-34.537 3.245v9.281c11.827-2.441 23.427-3.573 34.537-3.438z" fill="#2896ff"/></g><g><path d="m169.058 255.526c-11.156-.131-22.744.935-34.537 3.245v9.281c11.827-2.442 23.427-3.574 34.537-3.438z" fill="#2896ff"/></g></g><g><g><path d="m296.564 128.673c-11.717 1.861-22.714 5.181-32.634 9.976v10.136c.234-.079.466-.171.691-.291 9.561-5.099 20.335-8.656 31.943-10.636z" fill="#2896ff"/></g><g><path d="m296.564 150.104c-11.717 1.861-22.714 5.181-32.634 9.976v10.136c.234-.079.466-.171.691-.291 9.561-5.098 20.335-8.655 31.943-10.634z" fill="#2896ff"/></g><g><path d="m296.564 171.537c-11.717 1.861-22.714 5.181-32.634 9.976v10.136c.234-.079.466-.171.691-.291 9.561-5.098 20.335-8.655 31.943-10.634z" fill="#2896ff"/></g><g><path d="m296.564 192.97c-11.717 1.861-22.714 5.181-32.634 9.976v10.136c.234-.079.466-.171.691-.291 9.561-5.098 20.335-8.654 31.943-10.634z" fill="#2896ff"/></g><g><path d="m296.564 214.402c-11.717 1.861-22.714 5.181-32.634 9.976v10.136c.234-.079.466-.171.691-.291 9.561-5.099 20.335-8.656 31.943-10.636z" fill="#2896ff"/></g><g><path d="m296.564 235.834c-11.717 1.861-22.714 5.181-32.634 9.976v10.136c.234-.079.466-.171.691-.291 9.561-5.098 20.335-8.655 31.943-10.634z" fill="#2896ff"/></g><g><path d="m296.564 257.267c-11.717 1.861-22.714 5.181-32.634 9.976v10.136c.234-.079.466-.171.691-.291 9.561-5.098 20.335-8.655 31.943-10.634z" fill="#2896ff"/></g></g></g><path d="m276.393 419.545h-56.789c-8.229 0-14.901-6.671-14.901-14.901h86.59c.001 8.23-6.671 14.901-14.9 14.901z" fill="#033ad6"/></g></g></svg>