<svg id="Layer_1" enable-background="new 0 0 510 510" height="512" viewBox="0 0 510 510" width="512" xmlns="http://www.w3.org/2000/svg"><g><g><path d="m255 0c-98.131 0-158.574 55.347-158.741 55.441-3.787 17.481-10.374 42.85-10.374 61.465 0 140.833 118.763 254.972 259.596 254.972 60.017 0 115.159-27.944 158.719-62.639.178-1.087 5.8-23.477 5.8-54.239 0-140.833-114.167-255-255-255z" fill="#ffdc64"/><path d="m345.459 364.679c-140.833 0-255-114.167-255-255 0-18.615 2.013-36.757 5.8-54.239-.006.005-.011.01-.017.014-58.645 46.721-96.242 118.738-96.242 199.546 0 81.684 38.407 154.398 98.148 201.068l313.702-.02c45.965-35.881 79.451-87.273 92.349-146.809-43.559 34.695-98.724 55.44-158.74 55.44z" fill="#ffc305"/></g><g><path d="m349.269 333.646h-33.569l-60.7 21.038-59.646-21.038-11.745 18.001v148.209c16.992 4.946 34.713 8.179 52.967 9.487l36.105.051c52.08-3.583 100.124-22.872 139.167-53.35v-59.82c-.001-34.561-28.018-62.578-62.579-62.578z" fill="#00558c"/><path d="m195.354 333.646h-34.623c-34.561 0-62.578 28.017-62.578 62.578v7.237l27.043 71.061c18.368 10.886 38.219 19.533 59.179 25.562v-103.86c0-14.782 5.138-28.358 13.708-39.066z" fill="#00456b"/><g><path d="m255.527 403.435c33.233 0 60.173-26.94 60.173-60.173v-9.616h-120.346v9.616c0 33.233 26.94 60.173 60.173 60.173z" fill="#1e87dc"/></g><g><g><g><path d="m255.527 377.839c-20.717 0-37.512-16.795-37.512-37.512v-84.021h75.024v84.021c0 20.718-16.795 37.512-37.512 37.512z" fill="#1e87dc"/></g></g></g><path d="m237.32 509.379c3.851.264 7.724.449 11.618.545 0 0 4.035-3.699 6.062-3.699 2.026 0 6.062 3.702 6.062 3.702 3.893-.093 7.767-.276 11.618-.54v-201.947h-35.36z" fill="#fff"/><path d="m248.938 509.923c2.016.047 4.035.077 6.062.077 2.026 0 4.046-.028 6.062-.075v-202.485h-12.123v202.483z" fill="#373c41"/><g><g><g><path d="m255.527 319.205c-59.399 0-107.552-48.153-107.552-107.552v-32.568l3.552-54.393c0-34.233 24.199-65.537 58.432-65.537h91.135c34.233 0 56.194 31.304 56.194 65.537l4.736 54.393v32.568c.001 59.4-47.098 107.552-106.497 107.552z" fill="#ffbe82"/></g></g></g><g><g><g><path d="m362.025 198.448v-63.301c13.791 0 24.97 11.179 24.97 24.97v13.361c0 13.791-11.179 24.97-24.97 24.97z" fill="#ff965a"/></g></g></g><g><g><g><path d="m123.005 173.478c0 13.791 11.179 24.97 24.97 24.97v-63.301c-13.791 0-24.97 11.179-24.97 24.97z" fill="#ff965a"/></g></g></g><g><g><g><path d="m218.383 189.291c-4.898 0-8.87-3.972-8.87-8.87v-24.259c0-4.898 3.972-8.87 8.87-8.87s8.87 3.972 8.87 8.87v24.259c0 4.898-3.972 8.87-8.87 8.87z" fill="#ff965a"/></g></g></g><g><g><g><path d="m290.821 189.291c-4.898 0-8.87-3.972-8.87-8.87v-24.259c0-4.898 3.972-8.87 8.87-8.87s8.87 3.972 8.87 8.87v24.259c0 4.898-3.971 8.87-8.87 8.87z" fill="#ff965a"/></g></g></g><g><g><path d="m261.299 319.05c-44.774-13.003-77.503-54.323-77.503-103.292.266-6.051 0-64.687 0-86.961 0-34.233 27.751-61.985 61.985-61.985h77.358c-6.805-2.643-14.224-4.105-22.044-4.105h-91.135c-34.233 0-61.985 27.751-61.985 61.985v86.961c0 61.469 51.503 110.672 113.324 107.397z" fill="#ff965a"/></g></g><g><g><g><path d="m218.383 182.186c-4.898 0-8.87-3.972-8.87-8.87v-24.259c0-4.898 3.972-8.87 8.87-8.87s8.87 3.972 8.87 8.87v24.259c0 4.899-3.972 8.87-8.87 8.87z" fill="#373c41"/></g></g></g><g><g><g><path d="m290.821 182.186c-4.898 0-8.87-3.972-8.87-8.87v-24.259c0-4.898 3.972-8.87 8.87-8.87s8.87 3.972 8.87 8.87v24.259c0 4.899-3.971 8.87-8.87 8.87z" fill="#373c41"/></g></g></g><g><g><g><g><path d="m230.069 135.752h-25.867c-4.899 0-8.87-3.971-8.87-8.87 0-4.899 3.971-8.87 8.87-8.87h25.867c4.899 0 8.87 3.971 8.87 8.87 0 4.899-3.972 8.87-8.87 8.87z" fill="#783c28"/></g></g></g></g><g><g><g><g><path d="m303.986 135.752h-25.867c-4.899 0-8.87-3.971-8.87-8.87 0-4.899 3.971-8.87 8.87-8.87h25.867c4.899 0 8.87 3.971 8.87 8.87 0 4.899-3.972 8.87-8.87 8.87z" fill="#783c28"/></g></g></g></g><path d="m288.187 231.257h-9.133l-24.054 4.994-24.054-4.994h-8.079c-2.71 0-4.876 2.366-4.514 5.052.692 5.139 2.424 9.948 4.978 14.208l48.705 14.434c11-5.4 18.968-16.027 20.667-28.642.36-2.686-1.805-5.052-4.516-5.052z" fill="#be1423"/><g><g><g><path d="m241.155 194.778c-2.205 8.805 1.802 18.397 9.466 21.288 1.542.582 3.192.897 4.906.897 1.715 0 3.364-.315 4.906-.897 7.663-2.891 11.671-12.483 9.466-21.288l-7.31-29.19c-1.84-7.349-12.284-7.349-14.124 0z" fill="#ff965a"/></g></g></g><path d="m327.264 68.594c5.658 2.703 10.367 6.782 13.846 11.714l.113.213 20.802-12.256v-20.303c0-26.489-21.473-47.962-47.962-47.962h-87.283c-.685 0-1.368.013-2.05.038-25.836.952-45.29 23.99-42.927 49.735l1.724 18.791c10.419-4.843 21.766 5.105 18.23 16.037-.04.125-.08.25-.12.375-2.405 7.631 3.326 15.397 11.327 15.397h52.268c19.253 0 36.022-10.62 44.776-26.321 3.343-5.995 10.809-8.501 17.016-5.57.08.036.16.074.24.112z" fill="#783c28"/><g><g><path d="m183.499 47.962c0-26.489 21.473-47.962 47.961-47.962h-35.523c-26.488 0-47.962 21.473-47.962 47.962v77.293.003 53.828c7.878 0 14.265-6.387 14.265-14.265v-62.986c0-13.912 7.829-26.735 20.34-32.821.307-.149.613-.295.919-.437z" fill="#5a2d19"/></g><g><path d="m345.532 74.051c-1.268 2.274-2.722 4.426-4.309 6.47 4.181 6.045 6.538 13.346 6.538 20.97v63.331c0 7.878 6.386 14.265 14.265 14.265v-54.393-56.43c-6.1-2.557-13.244-.042-16.494 5.787z" fill="#5a2d19"/></g></g><g><path d="m212.783 165.176c-1.806 0-3.27-1.464-3.27-3.27v-9.903c0-1.806 1.464-3.27 3.27-3.27 1.806 0 3.27 1.464 3.27 3.27v9.903c-.001 1.806-1.465 3.27-3.27 3.27z" fill="#fff"/></g><g><path d="m285.055 165.176c-1.806 0-3.27-1.464-3.27-3.27v-9.903c0-1.806 1.464-3.27 3.27-3.27 1.806 0 3.27 1.464 3.27 3.27v9.903c0 1.806-1.464 3.27-3.27 3.27z" fill="#fff"/></g><g><path d="m223.334 250.515c6.555 10.934 18.517 18.254 32.192 18.254 5.924 0 11.524-1.378 16.506-3.823-2.141-13.433-13.776-23.701-27.812-23.701-8.284 0-15.732 3.577-20.886 9.27z" fill="#ff3c3c"/></g><g><path d="m273.762 241.245h-37.525c-2.922 0-5.292-2.369-5.292-5.292v-4.696h48.108v4.696c.001 2.923-2.368 5.292-5.291 5.292z" fill="#fff"/></g><g><path d="m301.315 424.137h69.466v37.924h-69.466z" fill="#00456b"/></g><path d="m98.153 403.461v16.084l8.969 22.276-5.479 16.915c7.536 5.682 15.402 10.948 23.557 15.78 8.006-7.495 13.011-18.155 13.011-29.988-.001-22.347-17.844-40.515-40.058-41.067z" fill="#fff"/><path d="m98.153 419.545v36.516c4.146 3.239 8.4 6.346 12.746 9.329 6.763-4.475 11.227-12.144 11.227-20.862 0-13.464-10.642-24.439-23.973-24.983z" fill="#ff3c3c"/></g></g></svg>