<svg id="Layer_1" enable-background="new 0 0 509.001 509.001" height="512" viewBox="0 0 509.001 509.001" width="512" xmlns="http://www.w3.org/2000/svg"><g><path d="m248.3.075c-102.164 2.443-189.418 65.09-227.643 153.825l41.74 113.358c33.393 90.691 120.223 150.573 216.861 149.557l172.764-1.816c36.089-44.36 57.533-101.11 56.967-162.884-1.306-142.522-118.202-255.447-260.689-252.04z" fill="#ff640a"/><path d="m115.273 464.951h282.364c8.138-5.545 15.973-11.561 23.453-18.045v-.009c11.206-9.712 21.556-20.387 30.92-31.896 8.477-10.418-1.855-25.442-14.563-21.097-.277.095-.551.188-.823.28-7.501 2.546-15.414-2.035-17.209-9.75-4.111-17.669-15.493-32.546-30.821-41.309-4.153-2.374-6.735-6.769-6.735-11.553v-103.038c0-32.295 21.229-61.334 52.462-69.548 4.807-1.264 8.181-3.308 9.909-6.394 4.668-9.138-8.959-28.315-39.363-45.711-7.302-4.206-21.928-10.406-31.833-14.447-6.123-2.498-10.127-8.448-10.127-15.061v-.02c0-34.162-27.694-61.856-61.856-61.856h-53.041c-22.58 0-42.335 12.099-53.134 30.168-16.465 27.548-37.68 51.925-62.016 72.846-16.767 14.414-30.295 28.419-27.404 34.08 5.617 10.036 28.661 9.054 61.745 6.054v179.244c0 3.183-2.58 5.764-5.764 5.764-4.823 2.913-11.022 2.051-14.883-2.053-42.839-45.543-69.096-106.863-69.096-174.322 0-.437.001-.875.003-1.311.163-32.259-44.038-41.694-56.803-12.067-13.294 30.856-20.659 64.867-20.659 100.6 0 87.878 44.47 165.137 111.953 210.84 1.076-.248 2.185-.389 3.321-.389z" fill="#e04955"/><g><path d="m145.687 124.471h214.658v269.839h-214.658z" fill="#783c28"/><g><g><path d="m297.844 157.114h-89.647c-20.102 0-36.399-3.955-36.399-24.057v-58.66c0-20.102 16.296-36.399 36.399-36.399h89.647c20.102 0 36.399 16.296 36.399 36.399v58.659c-.001 20.103-16.297 24.058-36.399 24.058z" fill="#783c28"/></g></g><g><g><path d="m182.827 109.989v-8.396c0-21.538 17.46-38.997 38.997-38.997h-16.828c-21.538 0-38.997 17.46-38.997 38.997v8.396z" fill="#a55a3c"/></g></g><g><g><path d="m253.449 380.406c-16.845 0-30.501-13.656-30.501-30.501v-68.317h61.002v68.317c-.001 16.845-13.656 30.501-30.501 30.501z" fill="#ff965a"/></g></g><g><g><path d="m339.203 150.218c-.201-20.291-16.708-36.635-37-36.635h-43.961c-26.016 0-49.512 10.774-66.281 28.098v132.828c0 17.685 10.451 33.791 26.718 40.729 10.414 4.442 21.875 6.901 33.913 6.901 48.297 0 87.45-39.153 87.45-87.45z" fill="#ffbe82"/></g></g><g><g><path d="m340.042 223.953v-51.47c11.213 0 20.303 9.09 20.303 20.303v10.864c0 11.213-9.09 20.303-20.303 20.303z" fill="#ff965a"/></g></g><g><g><path d="m165.999 223.953v-51.47c-11.213 0-20.303 9.09-20.303 20.303v10.864c0 11.213 9.09 20.303 20.303 20.303z" fill="#ff965a"/></g></g><g><g><path d="m223.247 216.74c-3.983 0-7.212-3.229-7.212-7.212v-19.725c0-3.983 3.229-7.212 7.212-7.212s7.212 3.229 7.212 7.212v19.725c0 3.983-3.229 7.212-7.212 7.212z" fill="#ff965a"/></g></g><g><g><path d="m282.146 216.74c-3.983 0-7.212-3.229-7.212-7.212v-19.725c0-3.983 3.229-7.212 7.212-7.212s7.212 3.229 7.212 7.212v19.725c0 3.983-3.229 7.212-7.212 7.212z" fill="#ff965a"/></g></g><g><g><path d="m223.247 210.73c-3.983 0-7.212-3.229-7.212-7.212v-19.725c0-3.983 3.229-7.212 7.212-7.212s7.212 3.229 7.212 7.212v19.725c0 3.983-3.229 7.212-7.212 7.212z" fill="#373c41"/></g></g><g><g><path d="m282.146 210.73c-3.983 0-7.212-3.229-7.212-7.212v-19.725c0-3.983 3.229-7.212 7.212-7.212s7.212 3.229 7.212 7.212v19.725c0 3.983-3.229 7.212-7.212 7.212z" fill="#373c41"/></g></g><g><g><g><path d="m232.749 172.975h-21.033c-3.983 0-7.212-3.229-7.212-7.212 0-3.983 3.229-7.212 7.212-7.212h21.033c3.983 0 7.212 3.229 7.212 7.212 0 3.983-3.229 7.212-7.212 7.212z" fill="#783c28"/></g></g></g><g><g><g><path d="m292.85 172.975h-21.033c-3.983 0-7.212-3.229-7.212-7.212 0-3.983 3.229-7.212 7.212-7.212h21.033c3.983 0 7.212 3.229 7.212 7.212 0 3.983-3.229 7.212-7.212 7.212z" fill="#783c28"/></g></g></g><g><g><path d="m241.763 223.089c-1.793 6.318 1.465 13.2 7.697 15.274 1.254.417 2.595.643 3.989.643s2.735-.226 3.989-.643c6.231-2.074 9.49-8.956 7.697-15.274l-8.745-30.814c-.841-2.964-5.042-2.964-5.883 0z" fill="#ff965a"/></g></g><circle cx="163.823" cy="225.837" fill="#fff" r="7.975"/><circle cx="341.244" cy="225.837" fill="#fff" r="7.975"/><path d="m260.654 113.737c-52.243-.1-94.655 42.229-94.655 94.472v27.338c0 35.362 21.085 65.404 50.932 78.93 8.38 3.797 15.388-7.362 8.423-13.372-18.396-15.872-30.041-39.351-30.041-65.558.022-38.347-.004-56.145-.007-64.817-.003-6.865 5.611-12.495 12.477-12.51h.009 41.972c24.425 0 44.226-19.801 44.226-44.226-.001 0-6.382-.205-33.336-.257z" fill="#ff965a"/><path d="m165.999 107.984v44.226 56c6.406 0 11.598-5.193 11.598-11.598v-14.207c0-16.676 13.518-30.194 30.194-30.194h41.972c24.425 0 44.226-19.801 44.226-44.226h-127.99z" fill="#783c28"/><path d="m292.422 113.583c19.784 0 36.021 16.936 36.021 36.72v46.307c0 6.406 5.193 11.598 11.598 11.598v-98.055z" fill="#783c28"/><g><g><path d="m226.866 251.245c-2.248 0-4.044 1.962-3.744 4.19 2.046 15.2 15.07 26.92 30.83 26.92 15.761 0 28.784-11.72 30.831-26.92.3-2.228-1.496-4.19-3.744-4.19z" fill="#ce4529"/></g></g><path d="m227.254 267.216c5.436 9.068 15.357 15.139 26.698 15.139 4.913 0 9.558-1.143 13.689-3.171-1.776-11.141-11.425-19.656-23.066-19.656-6.87 0-13.047 2.966-17.321 7.688z" fill="#ff640a"/><g fill="#fff"><path d="m269.076 259.528h-31.121c-2.424 0-4.388-1.965-4.388-4.388v-3.895h39.898v3.895c-.001 2.423-1.966 4.388-4.389 4.388z"/><path d="m218.93 201.094c-1.599 0-2.895-1.296-2.895-2.895v-8.698c0-1.599 1.296-2.895 2.895-2.895 1.599 0 2.895 1.296 2.895 2.895v8.698c-.001 1.599-1.297 2.895-2.895 2.895z"/><path d="m277.829 199.665c-1.599 0-2.895-1.296-2.895-2.895v-8.698c0-1.599 1.296-2.895 2.895-2.895 1.599 0 2.895 1.296 2.895 2.895v8.698c0 1.599-1.296 2.895-2.895 2.895z"/></g><path d="m279.536 25.979h-8.572c-26.462 0-49.859 17.182-57.778 42.431l-13.962 44.516h142.168v-25.091c0-34.163-27.694-61.856-61.856-61.856z" fill="#ffe046"/><path d="m276.98 25.979h-50.485c-34.162 0-61.856 27.694-61.856 61.856v25.092h50.485v-25.092c0-34.163 27.694-61.856 61.856-61.856z" fill="#fcb54c"/><path d="m383.353 117.362c-11.647-6.708-25.826-13.144-41.912-18.492 0 0-73.564.457-126.938.936-30.024.27-54.217 24.687-54.217 54.712v13.241c26.954-2.555 59.014-5.534 93.042-5.091 85.573-1.115 158.744 19.419 169.387.404 4.668-9.137-8.959-28.314-39.362-45.71z" fill="#ffe046"/><path d="m204.363 122.812h126.567c5.778 0 10.462-4.684 10.462-10.462v-14.854h-103.243c.024-.009.047-.018.071-.027h-68.665c-.028.009-.055.018-.083.027h-4.832v1.572c-15.846 5.309-29.829 11.666-41.335 18.294-30.404 17.396-44.031 36.571-39.363 45.711 7.232 12.922 43.345 7.581 92.597 3.18-6.276-1.17-10.618-3.358-12.657-7.001-2.645-5.18.591-13.583 9.424-23.058 8.011-8.594 19.308-13.382 31.057-13.382z" fill="#fcb54c"/><path d="m202.657 87.854h138.735v25.316h-138.735z" fill="#93dcfc"/><path d="m164.639 87.854h43.322v25.316h-43.322z" fill="#81b8fd"/></g><g><path d="m145.687 124.471h214.658v269.839h-214.658z" fill="#783c28"/><path d="m335.152 345.147h-163.407c-.724 0-1.445.012-2.163.036-26.892.888-47.98 23.507-47.98 50.414v75.978c38.682 23.733 84.189 37.425 132.898 37.425 53.923 0 103.917-16.784 145.076-45.393v-54.036c0-35.58-28.844-64.424-64.424-64.424z" fill="#72e4a0"/><path d="m107.321 409.571v52.578c16.985 12.061 35.518 22.079 55.237 29.722v-82.3c0-35.58 28.844-64.424 64.424-64.424h-55.237c-35.58 0-64.424 28.844-64.424 64.424z" fill="#62c389"/><g><g><path d="m297.844 157.114h-89.647c-20.102 0-36.399-3.955-36.399-24.057v-58.66c0-20.102 16.296-36.399 36.399-36.399h89.647c20.102 0 36.399 16.296 36.399 36.399v58.659c-.001 20.103-16.297 24.058-36.399 24.058z" fill="#783c28"/></g></g><g><g><path d="m182.827 109.989v-8.396c0-21.538 17.46-38.997 38.997-38.997h-16.828c-21.538 0-38.997 17.46-38.997 38.997v8.396z" fill="#a55a3c"/></g></g><g><g><path d="m253.449 380.406c-16.845 0-30.501-13.656-30.501-30.501v-68.317h61.002v68.317c-.001 16.845-13.656 30.501-30.501 30.501z" fill="#ff965a"/></g></g><g><g><path d="m339.203 150.218c-.201-20.291-16.708-36.635-37-36.635h-43.961c-26.016 0-49.512 10.774-66.281 28.098v132.828c0 17.685 10.451 33.791 26.718 40.729 10.414 4.442 21.875 6.901 33.913 6.901 48.297 0 87.45-39.153 87.45-87.45z" fill="#ffbe82"/></g></g><g><g><path d="m340.042 223.953v-51.47c11.213 0 20.303 9.09 20.303 20.303v10.864c0 11.213-9.09 20.303-20.303 20.303z" fill="#ff965a"/></g></g><g><g><path d="m165.999 223.953v-51.47c-11.213 0-20.303 9.09-20.303 20.303v10.864c0 11.213 9.09 20.303 20.303 20.303z" fill="#ff965a"/></g></g><g><g><path d="m223.247 216.74c-3.983 0-7.212-3.229-7.212-7.212v-19.725c0-3.983 3.229-7.212 7.212-7.212s7.212 3.229 7.212 7.212v19.725c0 3.983-3.229 7.212-7.212 7.212z" fill="#ff965a"/></g></g><g><g><path d="m282.146 216.74c-3.983 0-7.212-3.229-7.212-7.212v-19.725c0-3.983 3.229-7.212 7.212-7.212s7.212 3.229 7.212 7.212v19.725c0 3.983-3.229 7.212-7.212 7.212z" fill="#ff965a"/></g></g><g><g><path d="m223.247 210.73c-3.983 0-7.212-3.229-7.212-7.212v-19.725c0-3.983 3.229-7.212 7.212-7.212s7.212 3.229 7.212 7.212v19.725c0 3.983-3.229 7.212-7.212 7.212z" fill="#373c41"/></g></g><g><g><path d="m282.146 210.73c-3.983 0-7.212-3.229-7.212-7.212v-19.725c0-3.983 3.229-7.212 7.212-7.212s7.212 3.229 7.212 7.212v19.725c0 3.983-3.229 7.212-7.212 7.212z" fill="#373c41"/></g></g><g><g><path d="m241.763 223.089c-1.793 6.318 1.465 13.2 7.697 15.274 1.254.417 2.595.643 3.989.643s2.735-.226 3.989-.643c6.231-2.074 9.49-8.956 7.697-15.274l-8.745-30.814c-.841-2.964-5.042-2.964-5.883 0z" fill="#ff965a"/></g></g><circle cx="163.823" cy="225.837" fill="#fff" r="7.975"/><circle cx="341.244" cy="225.837" fill="#fff" r="7.975"/><path d="m260.654 113.737c-52.243-.1-94.655 42.229-94.655 94.472v27.338c0 35.362 21.085 65.404 50.932 78.93 8.38 3.797 15.388-7.362 8.423-13.372-18.396-15.872-30.041-39.351-30.041-65.558.022-38.347-.004-56.145-.007-64.817-.003-6.865 5.611-12.495 12.477-12.51h.009 41.972c24.425 0 44.226-19.801 44.226-44.226-.001 0-6.382-.205-33.336-.257z" fill="#ff965a"/><path d="m165.999 107.984v44.226 56c6.406 0 11.598-5.193 11.598-11.598v-14.207c0-16.676 13.518-30.194 30.194-30.194h41.972c24.425 0 44.226-19.801 44.226-44.226h-127.99z" fill="#783c28"/><path d="m292.422 113.583c19.784 0 36.021 16.936 36.021 36.72v46.307c0 6.406 5.193 11.598 11.598 11.598v-98.055z" fill="#783c28"/><g><g><path d="m226.866 251.245c-2.248 0-4.044 1.962-3.744 4.19 2.046 15.2 15.07 26.92 30.83 26.92 15.761 0 28.784-11.72 30.831-26.92.3-2.228-1.496-4.19-3.744-4.19z" fill="#ce4529"/></g></g><path d="m227.254 267.216c5.436 9.068 15.357 15.139 26.698 15.139 4.913 0 9.558-1.143 13.689-3.171-1.776-11.141-11.425-19.656-23.066-19.656-6.87 0-13.047 2.966-17.321 7.688z" fill="#ff640a"/><g fill="#fff"><path d="m269.076 259.528h-31.121c-2.424 0-4.388-1.965-4.388-4.388v-3.895h39.898v3.895c-.001 2.423-1.966 4.388-4.389 4.388z"/><path d="m218.93 201.094c-1.599 0-2.895-1.296-2.895-2.895v-8.698c0-1.599 1.296-2.895 2.895-2.895 1.599 0 2.895 1.296 2.895 2.895v8.698c-.001 1.599-1.297 2.895-2.895 2.895z"/><path d="m277.829 199.665c-1.599 0-2.895-1.296-2.895-2.895v-8.698c0-1.599 1.296-2.895 2.895-2.895 1.599 0 2.895 1.296 2.895 2.895v8.698c0 1.599-1.296 2.895-2.895 2.895z"/></g><path d="m279.536 25.979h-8.572c-26.462 0-49.859 17.182-57.778 42.431l-13.962 44.516h142.168v-25.091c0-34.163-27.694-61.856-61.856-61.856z" fill="#ffe046"/><path d="m276.98 25.979h-50.485c-34.162 0-61.856 27.694-61.856 61.856v25.092h50.485v-25.092c0-34.163 27.694-61.856 61.856-61.856z" fill="#fcb54c"/><path d="m383.353 117.362c-11.647-6.708-25.826-13.144-41.912-18.492 0 0-73.564.457-126.938.936-30.024.27-54.217 24.687-54.217 54.712v13.241c26.954-2.555 59.014-5.534 93.042-5.091 85.573-1.115 158.744 19.419 169.387.404 4.668-9.137-8.959-28.314-39.362-45.71z" fill="#ffe046"/><path d="m204.363 122.812h126.567c5.778 0 10.462-4.684 10.462-10.462v-14.854h-103.243c.024-.009.047-.018.071-.027h-68.665c-.028.009-.055.018-.083.027h-4.832v1.572c-15.846 5.309-29.829 11.666-41.335 18.294-30.404 17.396-44.031 36.571-39.363 45.711 7.232 12.922 43.345 7.581 92.597 3.18-6.276-1.17-10.618-3.358-12.657-7.001-2.645-5.18.591-13.583 9.424-23.058 8.011-8.594 19.308-13.382 31.057-13.382z" fill="#fcb54c"/><path d="m202.657 87.854h138.735v25.316h-138.735z" fill="#93dcfc"/><path d="m164.639 87.854h43.322v25.316h-43.322z" fill="#81b8fd"/></g></g></svg>