<svg id="Layer_1" enable-background="new 0 0 507.282 507.282" height="512" viewBox="0 0 507.282 507.282" width="512" xmlns="http://www.w3.org/2000/svg"><g><g><path d="m507.282 253.641c0 50.908-14.998 98.313-40.816 138.038-45.225 69.585-125.52 104.494-214.694 104.494-140.082 0-251.772-102.45-251.772-242.532s113.559-253.641 253.641-253.641 253.641 113.559 253.641 253.641z" fill="#2d56a1"/></g><g fill="#1a396b"><path d="m115.093 145.56c-.01-.048-.011-.051 0 0z"/><path d="m435.592 354.917c-.312.131-.625.261-.938.391-12.175 5.043-26.103-.404-31.969-12.205-19.64-39.508-56.6-69.454-101.713-79.067-1.897-.404-3.243-2.094-3.243-4.034 0-1.643.967-3.144 2.479-3.784 28.601-12.116 48.674-40.429 48.674-73.446v-9.792c10.225 0 18.515-8.29 18.515-18.515 0-.184 0-7.711 0-7.606.046-.012.077-.021.081-.024-.874-5.712 8.931-6.147 9.867.87 1.48 11.098 8.898 62.02 23.504 76.442 1.85 1.486 6.819 6.782 14.975 10.183 4.69 1.956 8.653-3.898 5.078-7.509-6.852-6.921-10.274-16.819-7.595-28.646.07-.334 11.081-52.858 11.03-52.615 4.569-29.639-18.538-61.133-50.5-66.86-.001 0-.002 0-.004-.001-3.74-.607-6.757-3.457-7.475-7.177-3.996-20.718-19.381-37.699-40.006-43.551-4.079-1.153-7.721-1.696-10.742-1.944-4.474-.368-8.452-2.816-10.911-6.571-2.374-3.624-6.466-6.018-11.123-6.018h-65.508c-31.164 0-56.427 25.263-56.427 56.427v7.855c-6.196 1.002-6.735 1.028-9.98 1.843-29.96 7.512-50.932 37.676-46.566 65.997.322 1.535 11.003 52.486 11.03 52.615 2.679 11.827-.742 21.725-7.595 28.646-3.575 3.611.387 9.465 5.078 7.51 8.156-3.401 13.125-8.697 14.975-10.183 13.364-13.195 21.139-57.948 23.504-76.442.776-5.807 7.801-6.654 9.553-3.089v9.658h.008v.191c0 10.226 8.29 18.515 18.515 18.515 0 0-7.535 58.078 46.448 82.553.374.17 3.493 1.51 5.487 2.236v5.59c-9.719 1.869-19.112 4.67-28.081 8.326-40.215 16.393-86.344-1.923-105.126-41.08-.389-.811-.774-1.624-1.154-2.439-25.343-54.32-107.051-37.357-107.721 22.58-.016 1.392-.02 2.787-.013 4.184.422 84.84 42.017 159.467 105.843 205.139l296.501-.934c25.289-18.334 47.061-41.222 64.112-67.461 13.504-20.779-8.012-46.334-30.867-36.758z"/></g><g><path d="m333.422 164.161c.104-.021 18.199-3.791 18.302-3.888-.487-3.183 2.691-5.251 6.29-3.94.173.068.344.146.512.233 1.719.892 2.809 2.657 3.065 4.577 1.48 11.098 8.898 62.02 23.504 76.442 1.851 1.487 6.821 6.784 14.98 10.185 4.69 1.955 8.652-3.898 5.077-7.508-6.855-6.921-10.278-16.82-7.598-28.65.053-.252 1.825-8.705 1.801-8.59.158-.752 9.577-45.682 9.229-44.024 4.57-29.639-18.538-61.133-50.5-66.86-.107-.017-7.586-1.232-7.481-1.21l-17.18-3.602v76.835z" fill="#ff5551"/><path d="m254.16 274.202c-81.837 0-148.179 66.342-148.179 148.179v37.5c41.592 29.831 92.572 47.401 147.66 47.401 55.549 0 106.917-17.871 148.698-48.158v-36.743c0-81.837-66.342-148.179-148.179-148.179z" fill="#f8e000"/><path d="m287.918 278.068c-92.525-21.562-181.937 48.454-181.937 144.313v37.5c24.987 17.921 53.359 31.42 83.98 39.337v-76.277c0-10.45 1.082-20.646 3.14-30.484 6.085-29.09 31.683-49.854 61.399-50.314.216-.003.433-.008.649-.015 20.961-.647 38.321-17.371 39.703-38.297.357-5.408-.338-10.607-1.895-15.419-1.074-3.318.717-6.901 4.069-7.867l.066-.019c-3.011-.91-6.068-1.711-9.156-2.432-.006-.008-.012-.017-.018-.026z" fill="#ffc305"/><path d="m110.789 116.771c-9.126 12.263-13.723 27.469-11.448 42.227-.348-1.658 9.072 43.273 9.229 44.024-.024-.115 1.748 8.338 1.801 8.59 2.679 11.828-.743 21.727-7.596 28.648-3.575 3.611.387 9.464 5.077 7.509 8.157-3.401 13.127-8.698 14.978-10.184 14.606-14.422 22.025-65.344 23.504-76.442.173-1.294.731-2.51 1.599-3.444v-3.785c-.001-20.513-16.631-37.143-37.144-37.143z" fill="#ff5551"/><g><path d="m157.322 90.928c.105-.022-7.374 1.193-7.481 1.21-15.7 2.813-29.259 11.844-38.452 23.817-6.384 8.315.936 20.072 11.187 17.881.169-.036.337-.072.505-.108 6.979-1.489 13.552 3.835 13.552 10.971v16.013c0 6.058 8.868 6.643 9.672.639.01-.071.019-.14.028-.208.256-1.92 1.346-3.685 3.065-4.577.168-.087.338-.165.512-.233 3.599-1.311 6.777.758 6.29 3.94.104.097 18.199 3.866 18.302 3.888v-76.835z" fill="#e20a62"/></g><g fill="#ff5551"><path d="m312.254 41.893v125.819h39.389v-72.016c.001-25.225-16.554-46.578-39.389-53.803z"/><path d="m295.217 39.269h-82.903c-31.164 0-56.427 25.263-56.427 56.427v72.016l141.342-128.392c-.669-.024-1.338-.051-2.012-.051z"/></g><g><g><path d="m281.975 301.28c0 15.362-12.453 27.815-27.815 27.815-15.362 0-27.815-12.453-27.815-27.815v-62.301h55.63z" fill="#ff965a"/></g></g><g><g><path d="m332.364 119.176c-.184-18.505-15.237-33.409-33.742-33.409h-40.09c-24.018 0-45.667 10.082-60.994 26.224v122.194c0 14.126 7.896 27.132 20.527 33.458 10.627 5.322 22.621 8.317 35.315 8.317 44.045 0 79.75-35.705 79.75-79.75l-.097-9.791 2.393-27.63-2.296-19.309z" fill="#ffbe82"/></g></g><g><g><path d="m333.128 186.418v-46.938c10.226 0 18.515 8.29 18.515 18.515v9.907c0 10.227-8.289 18.516-18.515 18.516z" fill="#ff965a"/></g></g><g><g><path d="m174.41 186.418v-46.938c-10.226 0-18.515 8.29-18.515 18.515v9.907c0 10.227 8.29 18.516 18.515 18.516z" fill="#ff965a"/></g></g><g><g><path d="m220.04 167.269v5.995c0 3.632 2.945 6.577 6.577 6.577s6.577-2.945 6.577-6.577v-5.995z" fill="#ff965a"/></g></g><g><g><path d="m273.753 167.269v5.995c0 3.632 2.945 6.577 6.577 6.577s6.577-2.945 6.577-6.577v-5.995z" fill="#ff965a"/></g></g><g><g><path d="m226.617 174.36c-3.632 0-6.577-2.945-6.577-6.577v-17.988c0-3.632 2.945-6.577 6.577-6.577s6.577 2.945 6.577 6.577v17.988c.001 3.632-2.944 6.577-6.577 6.577z" fill="#373c41"/></g></g><g><g><path d="m280.331 174.36c-3.632 0-6.577-2.945-6.577-6.577v-17.988c0-3.632 2.945-6.577 6.577-6.577s6.577 2.945 6.577 6.577v17.988c0 3.632-2.945 6.577-6.577 6.577z" fill="#373c41"/></g></g><g><g><path d="m243.503 185.63c-1.635 5.761 1.336 12.038 7.019 13.929 1.143.381 2.367.587 3.638.587s2.495-.206 3.638-.587c5.682-1.892 8.654-8.168 7.019-13.929l-7.975-28.101c-.767-2.703-4.598-2.703-5.365 0z" fill="#ff965a"/></g></g><path d="m260.731 85.908c-47.643-.091-87.359 38.51-87.359 86.153l1.038 14.357v10.573c0 32.248 19.228 59.645 46.448 71.98 7.642 3.463 14.033-6.714 7.681-12.194-16.777-14.475-27.396-35.886-27.396-59.786.02-34.97-.003-51.201-.006-59.11-.003-6.261 5.117-11.395 11.378-11.408h.008 38.276c22.275 0 40.012-18.432 40.012-40.706 0 0-5.5.188-30.08.141z" fill="#ff965a"/><path d="m174.41 80.661v40.332 51.069c5.842 0 10.577-4.736 10.577-10.577v-12.956c0-15.207 12.328-27.535 27.535-27.535h38.276c22.275 0 40.332-18.057 40.332-40.332h-116.72z" fill="#ff5551"/><path d="m321.333 77.598v-22.59c0-6.141-4.003-11.591-9.883-13.36-5.14-1.546-10.589-2.379-16.234-2.379h-4.12l-.319 46.498v.051h1.79c17.167.964 29.984 15.984 29.984 33.436v42.23c0 5.842 4.736 10.577 10.577 10.577v-83.507c0-3.193-2.713-5.713-5.897-5.478-3.185.235-5.898-2.285-5.898-5.478z" fill="#e20a62"/><g><g><path d="m229.918 211.307c-2.05 0-3.688 1.789-3.414 3.821 1.866 13.862 13.743 24.55 28.116 24.55s26.25-10.688 28.116-24.55c.273-2.032-1.364-3.821-3.414-3.821z" fill="#e20a62"/></g></g><path d="m230.271 225.872c4.957 8.269 14.005 13.806 24.348 13.806 4.48 0 8.716-1.042 12.484-2.892-1.619-10.16-10.419-17.925-21.035-17.925-6.265 0-11.898 2.705-15.797 7.011z" fill="#ff5551"/><g fill="#fff"><path d="m268.411 218.861h-28.381c-2.21 0-4.002-1.792-4.002-4.002v-3.552h36.385v3.552c0 2.21-1.792 4.002-4.002 4.002z"/><path d="m222.68 165.572c-1.458 0-2.64-1.182-2.64-2.64v-7.932c0-1.458 1.182-2.64 2.64-2.64 1.458 0 2.64 1.182 2.64 2.64v7.932c0 1.458-1.182 2.64-2.64 2.64z"/><path d="m276.394 164.27c-1.458 0-2.64-1.182-2.64-2.64v-7.932c0-1.458 1.182-2.64 2.64-2.64 1.458 0 2.64 1.182 2.64 2.64v7.932c0 1.458-1.182 2.64-2.64 2.64z"/></g><path d="m291.131 40.184c0-7.35-5.959-13.309-13.309-13.309h-65.508c-31.164 0-56.427 25.263-56.427 56.427v11.95l135.244-14.592z" fill="#ff5551"/><path d="m220.63 338.815h104.012v157.357h-104.012z" fill="#6ee1ff"/><g fill="#2896ff"><path d="m230.971 431.278v-27.458c0-.875.536-1.674 1.36-1.968.916-.326 1.957-.862 1.957-1.61v-26.41c0-1.37-1.619-1.952-3.239-1.952-.026 0-.053.003-.079.004v-33.068h-47.896v158.509c22.403 6.476 46.077 9.958 70.567 9.958 24.648 0 48.469-3.53 71.001-10.087v-21.473h-49.227c-24.546-.001-44.444-19.899-44.444-44.445z"/><path d="m240.851 402.235c1.038 0 1.869-.333 2.118-1.205l1.411-5.191h8.762l1.412 5.191c.248.872 1.079 1.205 2.117 1.205 1.786 0 4.153-1.121 4.153-2.658 0-.125-.042-.291-.083-.456l-7.766-25.331c-.456-1.453-2.325-2.159-4.235-2.159s-3.779.706-4.235 2.159l-7.723 25.331c-.042.165-.083.332-.083.456 0 1.537 2.366 2.658 4.152 2.658zm7.89-22.507 3.032 11.129h-6.063z"/><path d="m266.476 402.235c1.619 0 3.239-.664 3.239-1.993v-10.007h2.741l5.689 11.045c.456.872 1.245 1.205 2.076 1.205 1.91 0 4.07-1.744 4.07-3.363 0-.208-.042-.499-.208-.748l-5.066-9.176c2.906-1.121 5.024-3.779 5.024-8.43 0-6.768-4.526-8.887-10.215-8.887h-8.596c-1.204 0-1.993.914-1.993 1.952v26.41c-.001 1.328 1.62 1.992 3.239 1.992zm3.239-24.707h4.112c2.325 0 3.737.955 3.737 3.862 0 2.906-1.411 3.861-3.737 3.861h-4.112z"/><path d="m293.762 389.238c.083.125.166.332.166.581v10.423c0 1.329 1.619 1.993 3.239 1.993s3.24-.664 3.24-1.993v-10.423c0-.249.082-.456.165-.581l8.555-14.243c.083-.166.083-.333.083-.457 0-1.536-2.616-2.658-4.402-2.658-1.038 0-1.454.416-1.869 1.205l-5.773 10.672-5.813-10.672c-.457-.789-.83-1.205-1.869-1.205-1.786 0-4.402 1.121-4.402 2.658 0 .125 0 .291.083.457z"/></g><g fill="#fff"><path d="m213.481 366.688c5.731 0 10.215 2.658 10.215 9.8v10.755c0 7.142-4.484 9.8-10.215 9.8h-7.35c-1.702 0-2.824-.914-2.824-1.952v-26.451c0-1.038 1.121-1.952 2.824-1.952zm-3.696 5.648v19.06h3.696c2.325 0 3.738-1.328 3.738-4.152v-10.755c0-2.824-1.412-4.152-3.738-4.152h-3.696z"/><path d="m227.81 368.64c0-1.37 1.62-1.952 3.24-1.952 1.619 0 3.239.582 3.239 1.952v26.41c0 1.329-1.619 1.993-3.239 1.993-1.619 0-3.24-.664-3.24-1.993z"/><path d="m236.699 394.386c0-.125.042-.291.083-.456l7.723-25.331c.456-1.453 2.325-2.159 4.235-2.159s3.779.706 4.235 2.159l7.766 25.331c.042.165.083.332.083.456 0 1.536-2.368 2.658-4.153 2.658-1.038 0-1.869-.333-2.117-1.205l-1.412-5.191h-8.762l-1.411 5.191c-.249.872-1.08 1.205-2.118 1.205-1.786 0-4.152-1.122-4.152-2.658zm15.073-8.72-3.032-11.129-3.031 11.129z"/><path d="m263.236 368.64c0-1.038.79-1.952 1.993-1.952h8.596c5.688 0 10.215 2.118 10.215 8.887 0 4.651-2.118 7.309-5.024 8.43l5.066 9.176c.166.249.208.54.208.748 0 1.619-2.16 3.363-4.07 3.363-.83 0-1.619-.333-2.076-1.205l-5.689-11.045h-2.741v10.007c0 1.329-1.619 1.993-3.239 1.993-1.619 0-3.24-.664-3.24-1.993v-26.409zm6.479 3.696v7.723h4.112c2.325 0 3.737-.955 3.737-3.861 0-2.907-1.411-3.862-3.737-3.862z"/><path d="m293.929 384.628c0-.249-.083-.456-.166-.581l-8.595-14.243c-.083-.166-.083-.333-.083-.457 0-1.536 2.616-2.658 4.402-2.658 1.038 0 1.411.416 1.869 1.205l5.813 10.672 5.773-10.672c.415-.789.83-1.205 1.869-1.205 1.786 0 4.402 1.121 4.402 2.658 0 .125 0 .291-.083.457l-8.555 14.243c-.083.125-.165.332-.165.581v10.423c0 1.329-1.62 1.993-3.24 1.993s-3.239-.664-3.239-1.993v-10.423z"/></g><path d="m216.188 434.1c-4.499 2.047-9.806.058-11.852-4.441l-11.647-25.605c-2.047-4.499-.058-9.806 4.441-11.852 4.499-2.047 9.806-.058 11.852 4.441l11.647 25.605c2.047 4.499.059 9.805-4.441 11.852z" fill="#ff965a"/><g><g><path d="m208.607 475.148c.031 3.896-3.102 7.079-6.999 7.11l-19.751.155c-3.896.031-7.079-3.103-7.11-6.999s3.102-7.079 6.999-7.11l19.751-.155c3.897-.03 7.079 3.103 7.11 6.999z" fill="#ff965a"/></g><g><path d="m209.907 461.029c.037 4.675-3.723 8.495-8.398 8.531l-19.751.155c-4.675.037-8.495-3.723-8.531-8.398-.037-4.675 3.723-8.495 8.398-8.531l19.751-.155c4.675-.037 8.494 3.723 8.531 8.398z" fill="#ff965a"/></g><g><path d="m209.781 445.04c.037 4.675-3.723 8.495-8.398 8.531l-19.751.155c-4.675.037-8.495-3.723-8.531-8.398-.037-4.675 3.723-8.495 8.398-8.531l19.751-.155c4.675-.037 8.495 3.723 8.531 8.398z" fill="#ff965a"/></g><g><path d="m209.656 429.05c.037 4.675-3.723 8.495-8.398 8.531l-19.751.155c-4.675.037-8.495-3.723-8.531-8.398-.037-4.675 3.723-8.495 8.398-8.531l19.751-.155c4.674-.037 8.494 3.723 8.531 8.398z" fill="#ff965a"/></g></g><path d="m230.585 482.413h-38.907v-61.687h38.907c12.581 0 22.779 10.199 22.779 22.78v16.128c0 12.58-10.199 22.779-22.779 22.779z" fill="#ff965a"/><path d="m305.285 429.708v48.038h-26.468-40.736c-12.282 0-22.253-9.929-22.302-22.21-.028-6.924-.05-13.967-.05-18.664v-7.164z" fill="#ff965a"/><path d="m265.867 429.708h71.775v63.637h-71.775z" fill="#f8e000"/></g></g></svg>