<svg id="Layer_1" enable-background="new 0 0 511 511" height="512" viewBox="0 0 511 511" width="512" xmlns="http://www.w3.org/2000/svg"><g><g><path d="m511 255.5c0 33.066-6.281 64.665-17.716 93.669-37.362 94.769-127.013 146.207-235.056 146.207-141.108-.001-258.228-98.767-258.228-239.876s114.391-255.5 255.5-255.5 255.5 114.391 255.5 255.5z" fill="#ff5551"/></g><path d="m487.96 341.273c-3.079-.159-5.493-2.702-5.493-5.785v-16.113c0-39.13-31.886-69.856-69.856-69.856-38.581 0-69.856 31.276-69.856 69.856v3.946c0 8.256-5.386 15.546-13.278 17.972l-.337.104c-.247.077-.489.164-.726.261-4.246 1.74-9.004 1.686-12.958-.642-4.039-2.379-9.173-5.32-14.67-8.445-16.497-9.378-20.007-31.712-7.108-45.63 15.15-16.347 24.357-38.353 24.358-62.557 0-5.696 3.489-10.74 8.684-13.074 7.385-3.318 12.528-10.738 12.528-19.359v-11.351c0-10.504-7.643-19.202-17.667-20.892l2.086-1.852c3.479-3.089-1.189-8.362-4.674-5.266l-.958.85c0-.002 0-.006 0-.01 0-4.745 3.846-8.598 8.591-8.598h56.146c4.103 0 7.681-3.162 7.803-7.263.127-4.243-3.275-7.723-7.489-7.723h-50.495c-8.039 0-14.556-6.517-14.556-14.556v-39.61c0-17.176-13.924-31.1-31.1-31.1h-45.143c-.108-4.183-7.042-7.56-15.591-7.56s-15.483 3.376-15.591 7.56c-4.588 0-18.683 0-23.272 0h-20.038c-17.173 0-31.1 13.939-31.1 31.1v77.4l-.432-.378c-1.435-1.255-3.661-1.305-4.989.062-1.417 1.458-1.308 3.786.203 5.108l2.034 1.78c-10.201 1.539-18.029 10.317-18.029 20.948v11.351c0 11.36 8.936 20.607 20.159 21.159.329.486.686.952 1.053 1.408.018 8.258-.127 12.058.317 17.46 2.213 26.849 16.077 50.559 36.692 65.844 8.439 6.257 7.417 19.17-1.954 23.918l-.394.2c-5.445 2.759-12.059 1.693-16.347-2.652-24.141-24.454-42.469-52.772-54.802-83.099-21.298-52.375-99.675-37.391-99.711 19.147-.001 1.467.011 2.936.035 4.409.995 61.27 23.735 117.3 60.731 160.825 47.566 55.96 118.699 81.188 197.481 80.356 29.656-.313 58.095-5.688 84.508-15.286v10.066c67.526-24.524 123.207-77.377 150.511-146.545 1.448-3.669-1.168-7.674-5.106-7.877z" fill="#e20a62"/><g><path d="m290.861 343.162c0-.007 0-.014.001-.02-.441-.274-.894-.531-1.339-.8-.494-.3-.981-.612-1.479-.907v.023c-22.743-13.455-49.262-21.201-77.601-21.201-1.165 0-2.367.036-3.599.105-41.273 2.301-73.318 36.98-73.506 78.317-.173 38.126-.321 81.077-.321 81.077 36.367 19.91 78.097 31.244 122.483 31.244 38.449 0 74.905-8.509 107.612-23.721v-14.353c0-54.8-28.888-102.834-72.251-129.764z" fill="#2d56a1"/><path d="m138.268 482.566c-1.575-6.075-2.411-12.398-2.411-18.847 0-1.414.019-2.823.057-4.227.955-35.095 32.894-60.464 67.59-55.1 2.689.416 5.456.594 8.28.512 24.139-.701 43.657-20.778 43.716-44.926.061-24.936-20.136-45.169-45.057-45.169-9.188 0-17.729 2.756-24.854 7.478-18.634 3.058-36.134 9.484-51.852 18.638v-.018c-.293.17-.577.353-.869.525-.468.277-.945.541-1.41.823v.029c-31.086 18.835-54.902 48.446-66.289 83.65 20.635 23.029 45.384 42.293 73.099 56.632z" fill="#1a396b"/><circle cx="210.443" cy="347.794" fill="#2896ff" r="45.057"/><g><g><path d="m137.107 159.52v-65.661c0-22.502 18.241-40.743 40.743-40.743h-17.582c-22.502 0-40.743 18.242-40.743 40.743v65.661c0 22.502 18.241 26.929 40.743 26.929h17.582c-22.502 0-40.743-4.427-40.743-26.929z" fill="#5a2d19"/></g></g><g><g><path d="m210.89 374.09c-17.599 0-31.866-14.267-31.866-31.866v-71.376h63.733v71.376c0 17.599-14.267 31.866-31.867 31.866z" fill="#ff965a"/></g></g><g><g><path d="m297.337 159.042c0-29.081-18.656-55.674-47.737-55.674h-77.419c-12.35 0-23.153 4.807-31.507 12.553v150.176c0 20.823 11.714 40.024 30.455 49.099 12.02 5.82 25.509 9.084 39.761 9.084 49.965 0 90.47-40.505 90.47-90.47v-28.562z" fill="#ffbe82"/></g></g><g><g><path d="m301.36 221.697v-53.774c11.715 0 21.212 9.497 21.212 21.212v11.35c0 11.715-9.497 21.212-21.212 21.212z" fill="#ff965a"/></g></g><g><g><path d="m119.525 221.697v-53.774c-11.715 0-21.212 9.497-21.212 21.212v11.35c0 11.715 9.497 21.212 21.212 21.212z" fill="#ff965a"/></g></g><g><g><path d="m179.336 213.918c-4.161 0-7.535-3.374-7.535-7.535v-20.608c0-4.161 3.374-7.535 7.535-7.535s7.535 3.374 7.535 7.535v20.608c0 4.161-3.374 7.535-7.535 7.535z" fill="#ff965a"/></g></g><g><g><path d="m240.873 213.918c-4.161 0-7.535-3.374-7.535-7.535v-20.608c0-4.161 3.374-7.535 7.535-7.535s7.535 3.374 7.535 7.535v20.608c0 4.161-3.374 7.535-7.535 7.535z" fill="#ff965a"/></g></g><g fill="#ff965a"><path d="m149.955 236.402v-.259c0-6.801 7.016-11.131 13.23-8.367 3.709 1.65 7.829 2.539 12.16 2.467 15.834-.262 28.355-13.58 28.355-29.416v-13.433c0-1.944-1.576-3.521-3.521-3.521h-28.88c-11.788 0-21.344-9.556-21.344-21.344 0-29.081 23.575-52.656 52.656-52.656h65.715c-5.781-2.245-12.084-3.487-18.727-3.487h-77.419c-29.081 0-52.656 23.575-52.656 52.656v73.873c0 39.205 24.663 72.537 59.182 85.537 6.448 2.428 11.24-6.178 5.844-10.462-21.078-16.736-34.595-42.582-34.595-71.588zm3.103-45.487h43.601v10.491c0 12.021-9.78 21.8-21.8 21.8s-21.8-9.78-21.8-21.8v-10.491z"/><path d="m271.989 183.874h-50.642c-1.945 0-3.521 1.576-3.521 3.521v14.011c0 15.903 12.938 28.842 28.842 28.842 15.903 0 28.842-12.938 28.842-28.842v-14.011c0-1.945-1.576-3.521-3.521-3.521zm-3.52 17.532c0 12.021-9.78 21.8-21.8 21.8-12.021 0-21.8-9.78-21.8-21.8v-10.491h43.601v10.491z"/></g><g><g><path d="m179.336 207.882c-4.161 0-7.535-3.374-7.535-7.535v-20.608c0-4.161 3.374-7.535 7.535-7.535s7.535 3.374 7.535 7.535v20.608c0 4.162-3.374 7.535-7.535 7.535z" fill="#373c41"/></g></g><g><g><path d="m240.873 207.882c-4.161 0-7.535-3.374-7.535-7.535v-20.608c0-4.161 3.374-7.535 7.535-7.535s7.535 3.374 7.535 7.535v20.608c0 4.162-3.374 7.535-7.535 7.535z" fill="#373c41"/></g></g><g><g><g><path d="m189.263 168.437h-21.974c-4.162 0-7.535-3.374-7.535-7.535 0-4.161 3.374-7.535 7.535-7.535h21.974c4.162 0 7.535 3.374 7.535 7.535 0 4.161-3.373 7.535-7.535 7.535z" fill="#783c28"/></g></g></g><g><g><g><path d="m252.056 168.437h-21.974c-4.162 0-7.535-3.374-7.535-7.535 0-4.161 3.374-7.535 7.535-7.535h21.974c4.162 0 7.535 3.374 7.535 7.535 0 4.161-3.374 7.535-7.535 7.535z" fill="#783c28"/></g></g></g><path d="m238.635 249.568h-7.759l-27.134 2.26-13.734-2.26h-6.864c-2.302 0-4.142 2.01-3.835 4.292.973 7.23 4.019 11.599 4.232 12.068l41.371 12.263c9.344-4.587 16.114-13.615 17.556-24.331.309-2.282-1.53-4.292-3.833-4.292z" fill="#e20a62"/><g><g><path d="m198.681 218.579c-1.873 7.48 1.531 15.628 8.041 18.084 1.31.494 2.711.762 4.168.762s2.858-.268 4.168-.762c6.51-2.456 9.914-10.604 8.041-18.084l-6.21-24.797c-1.563-6.243-10.435-6.243-11.999 0z" fill="#ff965a"/></g></g><path d="m301.36 93.859c0-22.502-18.241-40.743-40.743-40.743h-100.349c-22.502 0-40.743 18.241-40.743 40.743v65.661.002 45.727c6.692 0 12.118-5.425 12.118-12.118v-53.507c0-11.819 6.651-22.712 17.279-27.881.269-.131.537-.258.805-.383 8.851-4.114 18.49 4.337 15.486 13.623-.037.114-.073.229-.109.343-2.034 6.473 2.845 13.055 9.63 13.055h44.402c16.355 0 30.6-9.022 38.037-22.36 2.84-5.093 9.182-7.222 14.455-4.732.103.049.205.097.307.146 10.664 5.124 17.307 16.064 17.307 27.896v53.799c0 6.692 5.425 12.118 12.118 12.118v-46.207z" fill="#783c28"/><g><path d="m149.702 93.859c0-22.502 18.241-40.743 40.743-40.743h-30.177c-22.502 0-40.743 18.241-40.743 40.743v65.661.002 45.727c6.692 0 12.118-5.425 12.118-12.118v-53.507c0-11.819 6.651-22.712 17.279-27.881.261-.127.521-.25.781-.371v-17.513z" fill="#5a2d19"/><path d="m287.349 116.021c-1.077 1.932-2.312 3.76-3.661 5.496 3.552 5.135 5.554 11.337 5.554 17.814v53.799c0 6.692 5.425 12.118 12.118 12.118v-46.207-47.936c-5.18-2.172-11.25-.035-14.011 4.916z" fill="#5a2d19"/><path d="m204.911 138.381c-6.785 0-11.664-6.582-9.63-13.055.036-.115.073-.229.109-.343 3.004-9.286-6.636-17.737-15.486-13.623-.268.125-.536.252-.805.383-6.334 3.081-11.239 8.203-14.182 14.335-1.448 6.221 3.295 12.303 9.817 12.303h44.402.001z" fill="#a55a3c"/></g><path d="m174.579 193.433c-1.534 0-2.778-1.244-2.778-2.778v-8.412c0-1.534 1.244-2.778 2.778-2.778 1.534 0 2.778 1.244 2.778 2.778v8.412c0 1.534-1.244 2.778-2.778 2.778z" fill="#fff"/><path d="m235.974 193.433c-1.534 0-2.778-1.244-2.778-2.778v-8.412c0-1.534 1.244-2.778 2.778-2.778 1.534 0 2.778 1.244 2.778 2.778v8.412c0 1.534-1.243 2.778-2.778 2.778z" fill="#fff"/><g><path d="m200.179 178.844h-35.037c-.89 2.695.486 5.108-1.62 7.041h33.137v10.491c0 12.021-9.779 21.8-21.8 21.8s-21.801-9.78-21.801-21.8v-6.375c-1.333.356-2.702.566-4.086.566-1.017 0-2-.106-2.955-.277v6.085c0 15.903 12.938 28.842 28.842 28.842 15.903 0 28.841-12.938 28.841-28.842v-14.011c0-1.944-1.577-3.52-3.521-3.52z" fill="#6ee1ff"/></g><g><path d="m224.868 196.376v-10.491h43.601v10.491c0 1.344-.135 2.655-.369 3.932h7.137c.176-1.286.273-2.598.273-3.932v-14.011c0-1.945-1.577-3.521-3.521-3.521h-50.642c-1.944 0-3.521 1.576-3.521 3.521v14.011c0 15.903 12.938 28.842 28.841 28.842.426 0 .849-.014 1.27-.032v-7.049c-.421.024-.844.04-1.27.04-12.02-.001-21.799-9.78-21.799-21.801z" fill="#6ee1ff"/></g><g><path d="m246.668 225.218c-1.944 0-3.521-1.576-3.521-3.521s1.577-3.521 3.521-3.521c12.021 0 21.801-9.78 21.801-21.8 0-1.945 1.577-3.521 3.521-3.521s3.521 1.576 3.521 3.521c-.001 15.903-12.939 28.842-28.843 28.842z" fill="#2896ff"/></g><path d="m183.543 265.928c5.568 9.288 15.73 15.507 27.347 15.507 5.032 0 9.79-1.171 14.022-3.248-1.819-11.411-11.703-20.134-23.626-20.134-7.038 0-13.365 3.039-17.743 7.875z" fill="#ff5551"/><path d="m226.381 258.053h-31.877c-2.483 0-4.495-2.013-4.495-4.495v-3.989h40.868v3.989c-.001 2.482-2.013 4.495-4.496 4.495z" fill="#fff"/><g><path d="m225.127 200.76h-7.041c0-3.968-3.228-7.196-7.196-7.196-3.969 0-7.197 3.228-7.197 7.196h-7.041c0-7.85 6.387-14.237 14.238-14.237 7.85 0 14.237 6.387 14.237 14.237z" fill="#6ee1ff"/></g><g><path d="m283.689 185.885h-11.29c-1.944 0-3.521-1.576-3.521-3.521s1.577-3.521 3.521-3.521h9.953l19.966-17.72c1.454-1.291 3.678-1.158 4.971.296 1.29 1.454 1.157 3.679-.297 4.97l-20.966 18.607c-.644.573-1.476.889-2.337.889z" fill="#6ee1ff"/></g><g><path d="m149.461 185.885h-11.565c-.853 0-1.676-.309-2.318-.871l-21.27-18.607c-1.464-1.28-1.612-3.504-.332-4.968 1.282-1.464 3.507-1.611 4.969-.332l20.274 17.736h10.243c1.944 0 3.521 1.576 3.521 3.521-.001 1.945-1.577 3.521-3.522 3.521z" fill="#6ee1ff"/></g><g><path d="m164.8 178.844h-15.263c-1.944 0-3.521 1.576-3.521 3.521v8.458c0 1.68 1.139 3.206 2.786 3.539 2.265.458 4.255-1.262 4.255-3.446v-5.03h11.743c1.944 0 3.521-1.576 3.521-3.521-.001-1.945-1.577-3.521-3.521-3.521z" fill="#fff"/></g><path d="m301.36 128.995v-44.78c0-17.176-13.924-31.1-31.1-31.1h-109.167v75.88z" fill="#ffc305"/><path d="m189.072 123.825c-12.801 0-23.178-10.377-23.178-23.178v-30.988c0-6.082 1.752-11.751 4.77-16.544h-20.04c-17.176 0-31.1 13.924-31.1 31.1v54.166h181.836v-14.556z" fill="#ff8500"/><path d="m245.956 138.381h-70.132v-50.2c0-19.366 15.699-35.066 35.066-35.066 19.366 0 35.066 15.699 35.066 35.066z" fill="#fff"/><path d="m366.411 138.381h-172.774c0 8.276 6.709 14.985 14.985 14.985h157.789c4.138 0 7.493-3.355 7.493-7.493 0-4.137-3.354-7.492-7.493-7.492z" fill="#2d56a1"/><path d="m196.088 138.381h-56.369c0 8.276 6.709 14.985 14.985 14.985h56.369c.001-8.276-6.708-14.985-14.985-14.985z" fill="#1a396b"/><ellipse cx="209.527" cy="53.213" fill="#2896ff" rx="15.601" ry="7.657"/><path d="m395.935 258.053c-.115 0-.23 0-.345.001-17.52.085-31.579 14.547-31.579 32.067v219.873h101.78v-182.085c0-38.58-31.275-69.856-69.856-69.856z" fill="#ff8500"/><path d="m455.669 358.58c-4.968 0-8.996 4.027-8.996 8.996v13.688h-35.759v-8.615c0-3.616-2.931-6.547-6.547-6.547h-16.259c-3.616 0-6.547 2.931-6.547 6.547v8.615h-11.223v-53.354c0-30.843 19.997-56.998 47.727-66.257-6.957-2.323-14.392-3.6-22.13-3.6-38.581 0-69.856 31.276-69.856 69.856v53.354 14.896 113.835h44.26v-107.75c0-2.473 3.753-2.665 3.891-.196.008.136.014.273.01.41-.074 2.536 1.214 4.033 2.729 4.916 2.788 1.625 4.593 4.517 4.593 7.744v6.971c0 3.616 2.931 6.547 6.547 6.547h16.259c3.616 0 6.547-2.931 6.547-6.547v-7.748c0-2.799 1.457-5.408 3.868-6.83 1.45-.856 2.772-2.357 2.85-4.991.104-3.501 2.754-6.361 6.24-6.361h13.137c5.338 0 9.665 4.327 9.665 9.665 0 4.968 4.028 8.996 8.996 8.996h10.122v-56.24z" fill="#fa690f"/><path d="m333.445 370.199h-29.37c-4.078 0-7.634 3.143-7.757 7.219-.126 4.218 3.255 7.677 7.444 7.677h29.683z" fill="#6ee1ff"/><path d="m444.156 370.199h-96.155v14.896h19.997c3.447 0 6.241 2.794 6.241 6.242s2.794 6.242 6.241 6.242h30.908c3.447 0 6.241-2.794 6.241-6.242s2.794-6.242 6.241-6.242h20.284v-14.896z" fill="#6ee1ff"/><path d="m486.661 370.199h-27.949v14.896h27.637c4.078 0 7.634-3.142 7.757-7.219.126-4.218-3.255-7.677-7.445-7.677z" fill="#6ee1ff"/><path d="m308.931 370.199h40.087v14.896h-40.087z" fill="#2896ff"/><path d="m398.266 370.199v27.379h13.123c1.467 0 2.813-.51 3.878-1.357v-26.022z" fill="#2896ff"/><path d="m442.933 370.199h33.593v14.896h-33.593z" fill="#2896ff"/><path d="m343.798 399.929c.369-.984.581-2.045.581-3.158v-38.249c0-4.968-4.028-8.996-8.996-8.996h-14.183v50.402h22.598z" fill="#ffc305"/><path d="m331.568 398.319c-4.968 0-8.996-4.027-8.996-8.996v-38.249c0-.529.055-1.044.142-1.548h-7.575c-4.968 0-8.996 4.027-8.996 8.996v38.249c0 4.968 4.028 8.996 8.996 8.996h20.244c4.439 0 8.119-3.219 8.853-7.448z" fill="#ff8500"/><path d="m475.914 349.527h-12.096v50.083h20.628c.297-.893.464-1.846.464-2.839v-38.249c-.001-4.968-4.028-8.995-8.996-8.995z" fill="#f8e000"/><path d="m474.787 398.319c-4.968 0-8.996-4.027-8.996-8.996v-38.249c0-.529.055-1.044.142-1.548h-10.264c-4.968 0-8.996 4.027-8.996 8.996v38.249c0 4.968 4.027 8.996 8.996 8.996h20.244c4.439 0 8.119-3.219 8.853-7.448z" fill="#ffc305"/><path d="m404.368 417.572h-16.259c-3.616 0-6.547-2.931-6.547-6.547v-49.441c0-3.616 2.931-6.547 6.547-6.547h16.259c3.616 0 6.547 2.931 6.547 6.547v49.441c-.001 3.616-2.932 6.547-6.547 6.547z" fill="#2896ff"/><g fill="#1a396b"><circle cx="389.431" cy="363.333" r="3.191"/><circle cx="401.502" cy="363.333" r="3.191"/><circle cx="389.431" cy="407.593" r="3.191"/><circle cx="401.502" cy="407.593" r="3.191"/></g><g><g><path d="m483.118 477.329c.033 4.166-3.318 7.571-7.485 7.603l-21.123.166c-4.167.033-7.571-3.318-7.603-7.485-.033-4.166 3.318-7.571 7.485-7.603l21.123-.166c4.166-.032 7.57 3.319 7.603 7.485z" fill="#ffbe82"/></g><g><path d="m484.508 462.229c.039 5-3.982 9.085-8.982 9.124l-21.123.166c-5 .039-9.085-3.982-9.124-8.982s3.982-9.085 8.982-9.124l21.123-.166c5-.039 9.085 3.982 9.124 8.982z" fill="#ffbe82"/></g><g><path d="m484.374 445.13c.039 5-3.982 9.085-8.982 9.124l-21.123.166c-5 .039-9.085-3.982-9.124-8.982s3.982-9.085 8.982-9.124l21.123-.166c4.999-.04 9.084 3.982 9.124 8.982z" fill="#ffbe82"/></g><g><path d="m484.239 428.03c.039 5-3.982 9.085-8.982 9.124l-21.123.166c-5 .039-9.085-3.982-9.124-8.982s3.982-9.085 8.982-9.124l21.123-.166c5-.039 9.085 3.982 9.124 8.982z" fill="#ffbe82"/></g></g><ellipse cx="212.123" cy="462.4" fill="#1a396b" rx="47.468" ry="33.764"/><ellipse cx="212.123" cy="451.335" fill="#2896ff" rx="47.468" ry="33.764"/></g></g></svg>