<svg id="Layer_1" enable-background="new 0 0 511 511" height="512" viewBox="0 0 511 511" width="512" xmlns="http://www.w3.org/2000/svg"><g><g><path d="m511 255.5c0 67.235-25.971 128.405-68.427 174.025-46.648 50.124-106.416 59.193-180.29 59.193-141.109 0-262.283-92.109-262.283-233.218s114.391-255.5 255.5-255.5 255.5 114.391 255.5 255.5z" fill="#f8e000"/></g><path d="m434.647 417.79c-.123.048-.246.096-.369.144-3.874 1.506-8.237-.583-9.499-4.543-11.657-36.594-36.16-68.203-69.208-88.725 0-.007 0-.014.001-.021-.109-.068-2.886-1.75-2.997-1.816v.024c-.268-.159-.537-.317-.807-.474-6.137-3.587-10.777-9.186-13.362-15.809-.042-.107-.084-.213-.126-.32-4.762-12.035-2.764-25.736 5.633-35.585 14.488-16.995 19.902-35.782 21.853-50.349 1.68-12.542 7.611-24.22 16.898-32.816 3.671-3.398 6.547-8.115 6.631-14.57v-12.071c-.008-13.033-7.916-19.604-12.803-22.42-1.601-.923-2.453-2.645-2.459-4.493-.005-1.683-1.261-3.267-2.864-3.736-2.084-.609-3.464-2.594-3.495-4.765l-.938-65.911c0-23.931-19.4-43.33-43.33-43.33h-88.024.003c-20.101.019-18.963-.047-21.083.068-22.693 1.232-40.945 20.007-40.945 43.262v72.058l-.617-.54c-3.727-3.26-8.661 2.372-4.931 5.636l2.163 1.893c-10.849 1.637-19.174 10.972-19.174 22.278v12.071c0 12.081 9.504 21.915 21.439 22.502.35.517.729 1.012 1.12 1.497.783 3.757-6.796 55.207 40.36 89.323-7.292 8.723-12.581 19.167-15.2 30.632-.06.029-.129.065-.208.107-31.975 17.189-71.985 4.942-87.535-27.86-7.523-15.87-13.324-32.359-17.396-49.186-13.009-53.762-91.959-46.061-93.302 9.235-.039 1.612-.063 3.228-.072 4.848-.448 79.453 35.064 150.451 91.362 197.578l324.288 2.966c9.56-7.702 18.553-16.078 26.909-25.057 5.24-5.63-.751-14.523-7.916-11.725z" fill="#ffc305"/><g><g><g><path d="m175.317 216.53v-57.189c-12.459 0-22.559 10.1-22.559 22.559v12.071c.001 12.459 10.1 22.559 22.559 22.559z" fill="#43265c"/></g></g><path d="m254.43 311.471c-30.745 0-59.492 8.548-84 23.393v161.612c26.613 9.395 55.241 14.524 85.07 14.524 29.569 0 57.958-5.04 84.374-14.28v-158.771c0-.722.033-1.434.081-2.14-24.838-15.423-54.138-24.338-85.525-24.338z" fill="#6ee1ff"/><path d="m204.033 505.814v-186.356c-11.858 3.869-23.121 9.056-33.603 15.405v161.612c10.885 3.843 22.099 6.986 33.603 9.339z" fill="#05cdff"/><g><path d="m236.629 376.095h35.602v35.602h-35.602z" fill="#8757f3" transform="matrix(.707 .707 -.707 .707 353.047 -64.54)"/></g><g><path d="m254.43 282.827c-40.534 0-73.394 32.859-73.394 73.394 0 26.98 14.568 50.544 36.257 63.297l37.566-37.566 37.253 37.253c21.391-12.825 35.712-36.229 35.712-62.984 0-40.535-32.859-73.394-73.394-73.394z" fill="#05cdff"/></g><g><path d="m234.615 376.929h39.63v39.63h-39.63z" fill="#1a396b" transform="matrix(.707 .707 -.707 .707 355.062 -63.706)"/></g><g><path d="m254.43 271.059c-40.534 0-73.394 32.859-73.394 73.394 0 26.98 14.568 50.544 36.257 63.297l37.566-37.566 37.253 37.253c21.391-12.825 35.712-36.229 35.712-62.984 0-40.534-32.859-73.394-73.394-73.394z" fill="#fff"/></g><g><g><g><path d="m176.438 140.529v-69.83c0-23.931 19.4-43.33 43.33-43.33h-18.698c-23.931 0-43.33 19.4-43.33 43.33v69.83c0 23.931 19.4 28.639 43.33 28.639h18.698c-23.93-.001-43.33-4.709-43.33-28.639z" fill="#5a2d19"/></g></g></g><g><g><g><path d="m254.906 368.722c-18.717 0-33.89-15.173-33.89-33.889v-75.907h67.779v75.907c.001 18.716-15.172 33.889-33.889 33.889z" fill="#ff965a"/></g></g></g><g><g><g><path d="m346.841 140.02c0-30.927-19.84-59.208-50.768-59.208h-82.334c-10.036 0-19.108 2.992-26.798 8.072v170.516c0 22.653 14.031 43.145 35.371 50.745 10.188 3.628 21.16 5.604 32.594 5.604 53.137 0 96.214-43.076 96.214-96.214v-30.375z" fill="#ffbe82"/></g></g></g><g><g><g><path d="m351.12 206.654v-57.189c12.459 0 22.559 10.1 22.559 22.559v12.071c0 12.459-10.1 22.559-22.559 22.559z" fill="#ff965a"/></g></g></g><g><g><g><path d="m157.74 206.654v-57.189c-12.459 0-22.559 10.1-22.559 22.559v12.071c.001 12.459 10.1 22.559 22.559 22.559z" fill="#ff965a"/></g></g></g><g><g><g><path d="m221.349 198.38c-4.425 0-8.013-3.588-8.013-8.013v-21.916c0-4.425 3.588-8.013 8.013-8.013s8.013 3.588 8.013 8.013v21.916c0 4.425-3.588 8.013-8.013 8.013z" fill="#ff965a"/></g></g></g><g><g><g><path d="m286.792 198.38c-4.425 0-8.013-3.588-8.013-8.013v-21.916c0-4.425 3.588-8.013 8.013-8.013s8.013 3.588 8.013 8.013v21.916c.001 4.425-3.587 8.013-8.013 8.013z" fill="#ff965a"/></g></g></g><g><g><path d="m190.102 222.292v-.276c0-7.232 7.461-11.838 14.07-8.898 3.945 1.755 8.326 2.7 12.932 2.624 16.84-.279 30.156-14.442 30.156-31.284v-14.286c0-2.068-1.676-3.744-3.744-3.744h-30.714c-12.537 0-22.7-10.163-22.7-22.7 0-30.927 25.072-55.999 55.999-55.999h69.888c-6.148-2.387-12.851-3.709-19.916-3.709h-82.334c-30.927 0-55.999 25.072-55.999 55.999v78.563c0 41.694 26.229 77.142 62.939 90.967 6.858 2.583 11.954-6.57 6.215-11.126-22.416-17.796-36.792-45.284-36.792-76.131zm3.3-48.375h46.369v11.157c0 12.784-10.4 23.184-23.184 23.184s-23.184-10.4-23.184-23.184v-11.157z" fill="#ff965a"/></g><g><path d="m319.884 166.429h-53.857c-2.068 0-3.744 1.676-3.744 3.744v14.901c0 16.913 13.76 30.673 30.673 30.673s30.673-13.76 30.673-30.673v-14.901c0-2.068-1.677-3.744-3.745-3.744zm-3.744 18.645c0 12.784-10.4 23.184-23.184 23.184s-23.184-10.4-23.184-23.184v-11.157h46.369v11.157z" fill="#ff965a"/></g></g><g><g><g><path d="m221.349 191.962c-4.425 0-8.013-3.588-8.013-8.013v-21.916c0-4.425 3.588-8.013 8.013-8.013s8.013 3.588 8.013 8.013v21.916c0 4.425-3.588 8.013-8.013 8.013z" fill="#373c41"/></g></g></g><g><g><g><path d="m286.792 191.962c-4.425 0-8.013-3.588-8.013-8.013v-21.916c0-4.425 3.588-8.013 8.013-8.013s8.013 3.588 8.013 8.013v21.916c.001 4.425-3.587 8.013-8.013 8.013z" fill="#373c41"/></g></g></g><g><g><g><g><path d="m231.906 150.012h-23.369c-4.426 0-8.013-3.588-8.013-8.013 0-4.426 3.588-8.013 8.013-8.013h23.369c4.426 0 8.013 3.588 8.013 8.013.001 4.425-3.587 8.013-8.013 8.013z" fill="#783c28"/></g></g></g></g><g><g><g><g><path d="m298.685 150.012h-23.369c-4.426 0-8.013-3.588-8.013-8.013 0-4.426 3.588-8.013 8.013-8.013h23.369c4.426 0 8.013 3.588 8.013 8.013.001 4.425-3.587 8.013-8.013 8.013z" fill="#783c28"/></g></g></g></g><g><g><g><path d="m225.4 236.294c-2.449 0-4.405 2.137-4.078 4.564 2.229 16.558 16.416 29.325 33.585 29.325s31.356-12.767 33.585-29.325c.327-2.427-1.63-4.564-4.078-4.564z" fill="#e20a62"/></g></g></g><g><g><g><path d="m241.922 203.338c-1.992 7.955 1.628 16.62 8.552 19.232 1.393.526 2.883.81 4.432.81s3.039-.285 4.433-.81c6.923-2.612 10.544-11.277 8.552-19.232l-6.604-26.372c-1.663-6.639-11.098-6.639-12.76 0z" fill="#ff965a"/></g></g></g><g><path d="m351.12 70.699c0-23.931-19.4-43.33-43.33-43.33h-106.72c-23.931 0-43.33 19.4-43.33 43.33v69.829.003 48.63c7.117 0 12.887-5.77 12.887-12.887v-56.904c0-12.569 7.073-24.154 18.376-29.652.286-.139.571-.275.856-.407 9.413-4.375 19.664 4.612 16.469 14.488-.039.121-.078.243-.116.365-2.163 6.884 3.026 13.884 10.241 13.884h47.221c17.394 0 32.543-9.595 40.452-23.779 3.02-5.416 9.766-7.68 15.373-5.032.109.052.218.104.327.156 11.341 5.45 18.406 17.084 18.406 29.667v57.215c0 7.117 5.77 12.887 12.887 12.887v-49.142-69.321z" fill="#783c28"/></g><g><g><path d="m189.833 70.699c0-23.931 19.4-43.33 43.33-43.33h-32.093c-23.931 0-43.33 19.4-43.33 43.33v69.829.003 48.63c7.117 0 12.887-5.77 12.887-12.887v-56.904c0-12.569 7.073-24.154 18.376-29.652.277-.135.554-.266.83-.395z" fill="#5a2d19"/></g><g><path d="m336.22 94.269c-1.145 2.054-2.459 3.999-3.893 5.845 3.777 5.461 5.906 12.057 5.906 18.945v57.215c0 7.117 5.77 12.887 12.887 12.887v-49.141-50.979c-5.509-2.31-11.964-.038-14.9 5.228z" fill="#5a2d19"/></g><g><path d="m248.547 118.048c-7.215 0-12.405-7-10.241-13.883.038-.122.077-.244.116-.365 3.195-9.876-7.057-18.863-16.47-14.488-.285.132-.57.268-.856.407-6.736 3.277-11.953 8.724-15.082 15.245-1.54 6.616 3.504 13.085 10.44 13.085h47.221.001-15.129z" fill="#a55a3c"/></g></g><g><path d="m216.29 176.595c-1.632 0-2.954-1.323-2.954-2.954v-8.946c0-1.632 1.323-2.954 2.954-2.954 1.631 0 2.954 1.323 2.954 2.954v8.946c0 1.631-1.323 2.954-2.954 2.954z" fill="#fff"/></g><g><path d="m281.583 176.595c-1.632 0-2.954-1.323-2.954-2.954v-8.946c0-1.632 1.323-2.954 2.954-2.954 1.632 0 2.954 1.323 2.954 2.954v8.946c0 1.631-1.322 2.954-2.954 2.954z" fill="#fff"/></g><g><path d="m216.587 210.398c-16.913 0-30.673-13.76-30.673-30.673v-14.901c0-2.068 1.676-3.744 3.744-3.744h53.857c2.068 0 3.744 1.676 3.744 3.744v14.901c.001 16.913-13.759 30.673-30.672 30.673zm-23.184-41.83v11.157c0 12.784 10.4 23.184 23.184 23.184s23.184-10.4 23.184-23.184v-11.157z" fill="#8757f3"/></g><g><path d="m292.956 210.398c-16.913 0-30.673-13.76-30.673-30.673v-14.901c0-2.068 1.676-3.744 3.744-3.744h53.857c2.068 0 3.744 1.676 3.744 3.744v14.901c.001 16.913-13.759 30.673-30.672 30.673zm-23.184-41.83v11.157c0 12.784 10.4 23.184 23.184 23.184h.001c12.784 0 23.184-10.4 23.184-23.184v-11.157z" fill="#8757f3"/></g><g><path d="m292.956 210.398c-2.068 0-3.744-1.676-3.744-3.744s1.676-3.744 3.744-3.744c12.784 0 23.184-10.4 23.184-23.184 0-2.068 1.676-3.744 3.744-3.744s3.744 1.676 3.744 3.744c.001 16.912-13.759 30.672-30.672 30.672z" fill="#6a2bc2"/></g><path d="m239.118 402.45-6.419 41.364 3.653 66.474c6.322.468 12.706.713 19.148.713 5.714 0 11.38-.207 17.001-.577l3.66-66.61-6.419-41.364z" fill="#1a396b"/><g><path d="m129.938 408.469v69.583c13.583 7.68 27.934 14.158 42.917 19.277v-163.899c-.163.095-.326.19-.489.286-26.432 15.515-42.428 44.105-42.428 74.753z" fill="#2d56a1"/><path d="m93.408 453.002c11.935 9.806 24.779 18.542 38.379 26.083 1.538-38.943 16.792-74.354 41.067-101.547v-44.108c-42.619 24.816-72.9 68.481-79.446 119.572z" fill="#1a396b"/><path d="m415.65 454.567c-4.913-41.514-25.492-78.219-55.66-104.061v138.212c20.061-9.002 38.743-20.525 55.66-34.151z" fill="#2d56a1"/></g><path d="m336.958 497.734c11.77-3.956 23.154-8.749 34.087-14.302v-122.528c-10.085-10.41-21.536-19.488-34.087-26.911z" fill="#1a396b"/><g><path d="m225.822 253.692c5.922 9.878 16.729 16.492 29.084 16.492 5.352 0 10.411-1.245 14.912-3.454-1.934-12.136-12.446-21.412-25.126-21.412-7.484 0-14.213 3.231-18.87 8.374z" fill="#ff5551"/></g><g><path d="m271.381 245.318h-33.901c-2.64 0-4.781-2.14-4.781-4.781v-4.243h43.462v4.243c0 2.64-2.14 4.781-4.78 4.781z" fill="#fff"/></g><g><path d="m270.048 184.387h-7.488c0-4.22-3.433-7.653-7.653-7.653s-7.653 3.433-7.653 7.653h-7.488c0-8.349 6.793-15.141 15.141-15.141s15.141 6.793 15.141 15.141z" fill="#8757f3"/></g><g><path d="m332.326 168.568h-12.006c-2.068 0-3.744-1.676-3.744-3.744s1.676-3.744 3.744-3.744h10.584l21.234-18.845c1.547-1.373 3.914-1.231 5.286.315 1.373 1.547 1.232 3.913-.315 5.286l-22.297 19.789c-.686.607-1.569.943-2.486.943z" fill="#8757f3"/></g><g><path d="m189.578 168.568h-12.3c-.907 0-1.783-.329-2.465-.926l-22.62-19.789c-1.556-1.362-1.714-3.727-.353-5.284 1.361-1.556 3.727-1.714 5.284-.353l21.561 18.863h10.894c2.068 0 3.744 1.676 3.744 3.744s-1.677 3.745-3.745 3.745z" fill="#8757f3"/></g><g><path d="m189.659 177.661c-2.068 0-3.744-1.676-3.744-3.744v-9.093c0-2.068 1.676-3.744 3.744-3.744h53.857c2.068 0 3.744 1.676 3.744 3.744s-1.676 3.744-3.744 3.744h-50.113v5.349c0 2.068-1.676 3.744-3.744 3.744z" fill="#6a2bc2"/></g></g></g></svg>