<svg id="Layer_1" enable-background="new 0 0 511 511" height="512" viewBox="0 0 511 511" width="512" xmlns="http://www.w3.org/2000/svg"><g><g><path d="m511 255.5c0 52.916-16.086 102.074-43.635 142.852-45.915 67.963-121.132 83.88-209.325 83.88-141.109 0-258.04-85.623-258.04-226.732s114.391-255.5 255.5-255.5 255.5 114.391 255.5 255.5z" fill="#ff5551"/></g><path d="m460.485 397.745-.164.087c-2.117 1.12-4.664-.415-4.664-2.809v-25.729c0-7.061-3.033-13.412-7.867-17.824-5.526-5.044-8.447-12.341-8.447-19.823v-56.517c5.597-1.232 7.657-7.307 5.357-11.636-1.098-2.066-.926-4.549.485-6.415 2.527-3.344 2.538-8.096.133-11.467-1.494-2.094-1.584-4.851-.103-6.954 2.351-3.338 2.316-7.992-.081-11.296-1.457-2.008-1.614-4.751-.15-6.754 3.738-5.111 1.672-13.44-5.641-15.107v-.25c-2.038.001-3.633 0-5.041 0-5.843-.001-10.618-4.66-10.764-10.502l-2.608-104.014-.767-30.58c-2.459-2.075-4.95-4.112-7.487-6.094l-.92 36.675-1.735 69.174c-.11 4.384-3.599 7.837-7.975 8.12-.061.004-.122.008-.183.013-5.363.441-9.364 5.182-9.322 10.563.266 33.871.184 32.035.415 33.348-5.077 4.645-8.25 11.358-8.25 18.721v115.782c-2.525.865-4.859 2.135-6.928 3.736-2.357-29.501-27.026-52.711-57.133-52.711h-2.22c-8.957 0-17.023-5.077-21.266-12.966-.068-.127-.137-.254-.206-.38-5.19-9.474-3.723-21.316 4.071-28.795 7.242-6.949 13.142-15.287 17.276-24.585 28.266-1.974 51.493-22.227 57.914-49.022 1.701-7.1-2.16-14.468-9.098-16.738-13.964-4.568-24.051-17.701-24.051-33.191v-30.718c0-14.66-5.735-27.974-15.078-37.838-4.351-4.594-7.709-10.048-9.538-16.105-4.021-13.316-16.38-23.013-31.008-23.013h-79.783c-17.768 0-32.187 14.307-32.384 32.028-14.062 9.977-23.248 26.375-23.248 44.929v31.489c0 12.131-6.326 22.785-15.86 28.841-12.682 8.057-17.176 24.538-9.623 37.526 10.232 17.593 28.587 29.878 49.928 31.731 7.101 16.311 19.671 29.613 35.283 37.715-3.896 3.314-7.331 7.153-10.196 11.406-6.599 9.798-17.008 16.679-30.615 17.864-.661.049-1.319.109-1.974.18-30.56 3.314-59.75-14.062-69.71-43.143-1.623-4.739-3.103-9.517-4.439-14.325-15.004-53.996-94.205-43.702-94.805 12.334-.01.93-.015 1.862-.015 2.794 0 82.976 39.554 156.714 100.835 203.387l335.866-23.275c6.689-6.73 13.02-13.844 18.956-21.316v-.011c3.084-3.883 6.059-7.858 8.918-11.919 1.914-2.72-1.15-6.176-4.09-4.621z" fill="#e20a62"/><g><path d="m386.013 232.775c-5.622.044-10.215-4.477-10.259-10.099l-.251-31.992c-.044-5.622 4.477-10.215 10.099-10.259 5.622-.044 10.215 4.477 10.259 10.099l.251 31.992c.044 5.622-4.477 10.215-10.099 10.259z" fill="#ff965a"/><path d="m422.306 319.527h-54.636v-30.104-46.331c0-13.969 11.293-25.309 25.261-25.366 7.875-.032 15.886-.057 21.227-.057h8.148z" fill="#ffbe82"/><path d="m422.306 277.557v-59.888h-8.148c-5.341 0-13.353.026-21.227.057-13.968.056-25.261 11.397-25.261 25.365v9.744c0 13.653 11.068 24.722 24.722 24.722z" fill="#ff965a"/><path d="m326.029 144.222v-30.718c0-30.413-24.654-55.067-55.067-55.067h-80.905c-30.413 0-55.067 24.654-55.067 55.067v31.489c0 18.857-15.287 34.144-34.144 34.144 0 35.464 28.749 64.213 64.213 64.213h131.672c35.464 0 64.213-28.749 64.213-64.213-19.283-.001-34.915-15.633-34.915-34.915z" fill="#783c28"/><path d="m303.608 309.899h-145.427c-.644 0-1.286.011-1.925.032-23.933.79-42.701 20.921-42.701 44.867v111.66c2.502 2.215 5.058 4.346 7.648 6.423 39.024 24.159 85.027 38.119 134.297 38.119 37.598 0 73.298-8.124 105.444-22.708v-121.057c0-31.666-25.67-57.336-57.336-57.336z" fill="#6ee1ff"/><path d="m230.895 280.333c-30.859 0-55.875 25.016-55.875 55.875 0 20.54 11.09 38.48 27.602 48.189l28.599-28.599 28.361 28.361c16.285-9.764 27.188-27.581 27.188-47.95 0-30.86-25.016-55.876-55.875-55.876z" fill="#05cdff"/><path d="m100.846 367.235v91.638c6.853 5.22 13.973 10.106 21.345 14.623v-106.261c0-31.665 25.67-57.335 57.335-57.335h-21.345c-31.665-.001-57.335 25.669-57.335 57.335z" fill="#05cdff"/><path d="m223.406 509.003c5.216.654 10.481 1.15 15.79 1.485v-169.21h-15.79z" fill="#fff"/><path d="m237.313 510.348c5.221.367 10.487.573 15.79.621v-169.691h-15.79z" fill="#05cdff"/><path d="m223.406 508.998c5.215.654 10.482 1.135 15.79 1.469v-169.19h-15.79z" fill="#fff"/><g><g><path d="m231.343 472.901c-2.847 0-5.155-2.308-5.155-5.155 0-2.847 2.308-5.155 5.155-5.155 2.847 0 5.155 2.308 5.155 5.155 0 2.847-2.308 5.155-5.155 5.155z" fill="#2d56a1"/></g></g><g><g><path d="m231.343 432.606c-2.847 0-5.155-2.308-5.155-5.155 0-2.847 2.308-5.155 5.155-5.155 2.847 0 5.155 2.308 5.155 5.155 0 2.847-2.308 5.155-5.155 5.155z" fill="#2d56a1"/></g></g><g><g><path d="m231.343 392.311c-2.847 0-5.155-2.308-5.155-5.155 0-2.847 2.308-5.155 5.155-5.155 2.847 0 5.155 2.308 5.155 5.155 0 2.847-2.308 5.155-5.155 5.155z" fill="#2d56a1"/></g></g><path d="m230.895 267.496c-30.859 0-55.875 25.016-55.875 55.875 0 20.54 11.09 38.48 27.602 48.189l28.599-28.599 28.361 28.361c16.285-9.764 27.188-27.581 27.188-47.95 0-30.86-25.016-55.876-55.875-55.876z" fill="#fff"/><g><g><path d="m270.405 142.555h-79.783c-17.891 0-32.394-3.52-32.394-21.41v-52.205c0-17.89 14.503-32.394 32.394-32.394h79.783c17.891 0 32.394 14.503 32.394 32.394v52.204c0 17.891-14.503 21.411-32.394 21.411z" fill="#783c28"/></g></g><g><g><path d="m168.044 100.615v-7.472c0-19.168 15.539-34.707 34.707-34.707h-14.977c-19.168 0-34.707 15.539-34.707 34.707v7.472z" fill="#a55a3c"/></g></g><g><g><path d="m230.895 341.278c-14.992 0-27.145-12.153-27.145-27.145v-60.8h54.29v60.8c0 14.992-12.154 27.145-27.145 27.145z" fill="#ff965a"/></g></g><g><g><path d="m307.214 136.418c-.179-18.059-14.869-32.604-32.929-32.604h-39.125c-22.479 0-42.841 9.043-57.666 23.68v122.095c0 14.259 8.244 27.349 21.262 33.167 9.583 4.283 20.199 6.666 31.376 6.666 42.983 0 77.828-34.845 77.828-77.828z" fill="#ffbe82"/></g></g><g><g><path d="m307.96 202.04v-45.807c9.979 0 18.069 8.09 18.069 18.069v9.669c0 9.979-8.09 18.069-18.069 18.069z" fill="#ff965a"/></g></g><g><g><path d="m153.067 202.04v-45.807c-9.979 0-18.069 8.09-18.069 18.069v9.669c0 9.979 8.09 18.069 18.069 18.069z" fill="#ff965a"/></g></g><g><g><path d="m204.016 195.621c-3.545 0-6.419-2.874-6.419-6.419v-17.555c0-3.545 2.874-6.419 6.419-6.419s6.419 2.874 6.419 6.419v17.555c0 3.545-2.874 6.419-6.419 6.419z" fill="#ff965a"/></g></g><g><g><path d="m256.435 195.621c-3.545 0-6.419-2.874-6.419-6.419v-17.555c0-3.545 2.874-6.419 6.419-6.419s6.419 2.874 6.419 6.419v17.555c-.001 3.545-2.875 6.419-6.419 6.419z" fill="#ff965a"/></g></g><g><g><path d="m204.016 190.272c-3.545 0-6.419-2.874-6.419-6.419v-17.555c0-3.545 2.874-6.419 6.419-6.419s6.419 2.874 6.419 6.419v17.555c0 3.545-2.874 6.419-6.419 6.419z" fill="#373c41"/></g></g><g><g><path d="m256.435 190.272c-3.545 0-6.419-2.874-6.419-6.419v-17.555c0-3.545 2.874-6.419 6.419-6.419s6.419 2.874 6.419 6.419v17.555c-.001 3.545-2.875 6.419-6.419 6.419z" fill="#373c41"/></g></g><g><g><path d="m220.495 201.271c-1.596 5.623 1.304 11.747 6.85 13.594 1.116.371 2.31.573 3.55.573 1.241 0 2.434-.201 3.55-.573 5.545-1.846 8.445-7.971 6.85-13.594l-7.782-27.424c-.749-2.638-4.487-2.638-5.235 0z" fill="#ff965a"/></g></g><circle cx="151.13" cy="203.717" fill="#fff" r="7.098"/><circle cx="309.03" cy="203.717" fill="#fff" r="7.098"/><path d="m237.307 103.951c-46.495-.089-84.24 37.582-84.24 84.077v24.33c0 31.471 18.765 58.208 45.328 70.245 7.458 3.379 13.695-6.552 7.496-11.9-16.372-14.126-26.736-35.022-26.736-58.345.019-34.127-.003-49.967-.006-57.685-.002-6.11 4.994-11.12 11.104-11.133h.008 37.354c21.738 0 39.36-17.622 39.36-39.36 0 0-5.68-.183-29.668-.229z" fill="#ff965a"/><path d="m153.067 98.831v39.36 49.838c5.701 0 10.322-4.621 10.322-10.322v-12.644c0-14.841 12.031-26.871 26.871-26.871h37.354c21.738 0 39.36-17.622 39.36-39.36h-113.907z" fill="#783c28"/><path d="m265.58 103.814c17.607 0 32.058 15.073 32.058 32.68v41.212c0 5.701 4.621 10.322 10.322 10.322v-87.266z" fill="#783c28"/><g><g><path d="m207.237 226.329c-2 0-3.599 1.746-3.332 3.729 1.821 13.528 13.412 23.958 27.438 23.958 14.027 0 25.617-10.431 27.438-23.958.267-1.983-1.332-3.729-3.332-3.729z" fill="#e20a62"/></g></g><path d="m207.582 240.542c4.838 8.07 13.667 13.473 23.761 13.473 4.372 0 8.506-1.017 12.183-2.822-1.58-9.915-10.168-17.493-20.528-17.493-6.115.001-11.612 2.641-15.416 6.842z" fill="#ff5551"/><g fill="#fff"><path d="m244.802 233.701h-27.697c-2.157 0-3.906-1.749-3.906-3.906v-3.466h35.508v3.466c.001 2.157-1.748 3.906-3.905 3.906z"/><path d="m200.174 181.696c-1.423 0-2.576-1.154-2.576-2.576v-7.741c0-1.423 1.154-2.576 2.576-2.576 1.423 0 2.576 1.154 2.576 2.576v7.741c0 1.422-1.153 2.576-2.576 2.576z"/><path d="m252.593 180.425c-1.423 0-2.576-1.153-2.576-2.576v-7.741c0-1.423 1.154-2.576 2.576-2.576 1.423 0 2.576 1.154 2.576 2.576v7.741c0 1.422-1.154 2.576-2.576 2.576z"/><path d="m377.919 319.527h44.387v62.474h-44.387z"/></g><path d="m367.67 319.527h18.332v62.474h-18.332z" fill="#6ee1ff"/><path d="m414.479 357.57h-38.489v123.263c23.263-12.468 44.377-28.422 62.63-47.181v-51.941c0-13.333-10.808-24.141-24.141-24.141z" fill="#6ee1ff"/><path d="m351.356 381.711v109.47h2.961c8.948-3.756 17.63-8.016 26.025-12.727v-96.744c0-13.333 10.808-24.141 24.141-24.141h-28.986c-13.333.001-24.141 10.809-24.141 24.142z" fill="#05cdff"/><path d="m394.875 96.946-6.266 249.894c-.003.165-.004.369 0 .537.148 5.908 5.058 10.578 10.966 10.429 5.908-.148 10.578-5.058 10.429-10.966l-6.266-249.894z" fill="#a55a3c"/><path d="m403.893 103.152-1.872-74.674c-.039-1.434-1.195-2.61-2.646-2.646-1.499-.038-2.745 1.147-2.783 2.646l-1.873 74.674z" fill="#faf58c"/><path d="m317.857 501.066c-18.501 0-33.499-14.998-33.499-33.499v-44.264h66.997v44.264c.001 18.501-14.997 33.499-33.498 33.499z" fill="#fff"/><g><g><path d="m428.597 279.651c.035 4.431-3.529 8.051-7.96 8.086l-22.464.177c-4.431.035-8.051-3.529-8.086-7.96s3.528-8.051 7.96-8.086l22.464-.177c4.431-.035 8.051 3.529 8.086 7.96z" fill="#ffbe82"/></g><g><path d="m430.075 263.593c.042 5.317-4.235 9.661-9.552 9.703l-22.464.177c-5.317.042-9.662-4.235-9.703-9.552-.042-5.317 4.235-9.662 9.552-9.703l22.464-.177c5.317-.042 9.661 4.234 9.703 9.552z" fill="#ffbe82"/></g><g><path d="m429.932 245.407c.042 5.317-4.235 9.661-9.552 9.703l-22.464.177c-5.317.042-9.662-4.235-9.703-9.552-.042-5.317 4.235-9.662 9.552-9.703l22.464-.177c5.317-.042 9.661 4.235 9.703 9.552z" fill="#ffbe82"/></g><g><path d="m429.789 227.222c.042 5.317-4.235 9.661-9.552 9.703l-22.464.177c-5.317.042-9.661-4.235-9.703-9.552s4.235-9.662 9.552-9.703l22.464-.177c5.317-.042 9.661 4.234 9.703 9.552z" fill="#ffbe82"/></g></g></g></g></svg>